<?xml version="1.0" encoding="UTF-8" standalone="no"?><!DOCTYPE svg PUBLIC "-//W3C//DTD SVG 1.1//EN" "http://www.w3.org/Graphics/SVG/1.1/DTD/svg11.dtd"><svg width="100%" height="100%" viewBox="0 0 200 200" version="1.1" xmlns="http://www.w3.org/2000/svg" xmlns:xlink="http://www.w3.org/1999/xlink" xml:space="preserve" xmlns:serif="http://www.serif.com/" style="fill-rule:evenodd;clip-rule:evenodd;stroke-linejoin:round;stroke-miterlimit:2;"><g id="Настаняване"><path d="M12.773,146.125c-3.602,-0.119 -6.402,0.551 -6.305,-5.298c0.335,-20.14 12.327,-35.592 13.272,-36.908c2.038,-2.836 11.09,-12.282 16.344,-14.793c4.731,-2.261 6.63,-3.573 8,-4.018c2.289,-0.745 2.132,0.406 2.586,2.748c0.717,3.699 2.171,7.263 2.992,10.942c1.237,5.544 1.508,5.445 3.027,10.922c1.09,3.933 1.699,5.369 8.648,3.515c0.995,-0.265 11.087,-2.958 12.437,-3.326c55.799,-15.215 55.881,-14.892 60.701,-16.325c5.756,-1.712 9.219,-1.919 10.283,-4.486c0.45,-1.085 -0.925,-7.003 -0.577,-7.412c1.174,-1.381 13.767,4.507 14.973,5.189c7.267,4.106 7.505,3.809 13.547,9.564c10.588,10.087 13.624,17.982 16.708,25.577c1.869,4.603 3.711,16.853 3.754,17.296c0.75,7.658 -2.481,6.817 -10.169,6.815c-56.74,-0 -113.48,-0.001 -170.221,-0.001Z"/><path d="M163.757,85.577c-0.393,-0.254 -0.68,-0.653 -1.073,-0.908c-3.802,-2.46 -9.872,-4.81 -10.762,-5.155c-3.085,-1.195 -13.327,-3.643 -15.816,-3.825c-9.168,-0.671 -11.178,0.34 -13.654,-2.445c-5.136,-5.776 -5.282,-5.591 -10.769,-11.044c-5.778,-5.743 -5.748,-5.749 -6.251,-6.246c-4.067,-4.02 -5.76,-7.079 -9.698,-3.926c-0.457,0.366 -19.103,18.981 -20.277,20.314c-3.531,4.009 -4.237,2.921 -9.568,3.179c-11.417,0.554 -17.705,4.269 -22.035,5.67c-3.407,1.102 -7.828,4.469 -9.013,3.298c-0.312,-0.308 -0.265,-0.392 -0.265,-35.797c0,-10.878 -0.974,-13.7 4.748,-13.935c0.527,-0.022 118.805,-0.032 120.241,0.007c6.456,0.179 5.42,2.948 5.42,12.366c-0,33 0.173,32.995 0.167,35.864c-0.003,1.572 -0.231,1.547 -1.396,2.584Z"/><path d="M75.24,78.841c2.923,0.15 2.905,0.14 3.157,0.162c3.976,0.349 34.428,0.194 37.438,0.082c11.347,-0.423 22.213,0.452 23.192,1.093c1.492,0.976 2.11,6.711 1.544,7.382c-0.499,0.592 -0.742,0.88 -9.191,3.014c-7.155,1.807 -23.371,6.301 -24.877,6.663c-10.053,2.419 -9.918,2.849 -24.909,6.593c-4.056,1.013 -3.953,1.248 -8.036,2.243c-10.952,2.668 -15.259,4.754 -16.842,3.291c-1.155,-1.067 -2.76,-8.479 -2.924,-9.236c-1.1,-5.078 -1.879,-6.058 -2.982,-10.965c-1.153,-5.126 -1.493,-5.706 0.554,-6.823c5.768,-3.148 23.098,-3.454 23.875,-3.499Z"/><path d="M26.131,159.568c0,-0.634 0,-7.7 0.037,-7.922c0.433,-2.595 1.168,-2.321 3.804,-2.283c18.614,0.269 19.041,-0.031 19.512,1.09c0.068,0.161 0.979,15.886 -0.606,18.642c-0.694,1.207 -0.979,1.623 -17.364,1.293c-6.119,-0.123 -5.56,-2.962 -5.384,-10.82Z"/><path d="M172.912,159.568c-0.007,4.997 0.687,9.824 -2.508,10.593c-0.354,0.085 -17.228,0.993 -19.142,-0.566c-1.81,-1.473 -1.449,-3.465 -1.452,-13.151c-0,-0.497 -0.002,-5.562 0.497,-6.189c0.858,-1.079 7.683,-0.893 15.508,-0.892c1.035,0 2.069,-0.008 3.104,0.001c2.626,0.023 3.404,-0.337 3.848,2.268c0.107,0.626 -0.102,0.628 0.146,7.935Z"/><path d="M84.276,68.664c7.211,-7.192 7.19,-7.188 7.818,-7.81c2.291,-2.27 5.183,-5.706 6.566,-5.686c1.652,0.025 7.842,7.407 16.731,15.82c0.294,0.278 3.289,3.113 3.089,4.001c-0.115,0.512 -5.299,0.376 -5.76,0.364c-7.742,-0.203 -33.738,0.423 -33.938,-0.332c-0.302,-1.146 3.977,-4.846 5.494,-6.357Z"/></g></svg>