<?xml version="1.0" encoding="UTF-8" standalone="no"?><!DOCTYPE svg PUBLIC "-//W3C//DTD SVG 1.1//EN" "http://www.w3.org/Graphics/SVG/1.1/DTD/svg11.dtd"><svg width="100%" height="100%" viewBox="0 0 200 200" version="1.1" xmlns="http://www.w3.org/2000/svg" xmlns:xlink="http://www.w3.org/1999/xlink" xml:space="preserve" xmlns:serif="http://www.serif.com/" style="fill-rule:evenodd;clip-rule:evenodd;stroke-linejoin:round;stroke-miterlimit:2;"><g id="Изкачване"><path d="M178.255,114.687c0.759,1.272 0.631,1.332 9.279,16.021c0.671,1.139 5.427,9.804 6.697,11.759c0.146,0.225 0.138,0.223 4.391,7.546c0.136,0.234 1.844,3.176 -1.047,3.221c-10.09,0.156 -10.085,-0.065 -126.144,-0.065c-22.639,0.017 -45.279,0.035 -67.918,0.052c-0.234,-0 -2.767,-0.005 -2.135,-2.002c0.249,-0.786 2.791,-4.719 3.05,-5.119c1.208,-1.868 8.204,-14.366 10.319,-17.841c0.071,-0.116 16.499,-28.814 22.547,-39.113c3.558,-6.059 4.449,-8.367 4.923,-8.534c2.447,-0.861 2.157,0.46 3.477,2.712c1.755,2.994 1.932,3.671 6.179,10.859c9.586,16.223 9.169,17.295 11.107,17.064c0.846,-0.101 0.993,-0.858 2.589,-3.689c3.934,-6.98 9.324,-16.06 10.148,-17.449c0.605,-1.02 16.589,-29.133 24.421,-42.38c1.112,-1.881 0.812,-2.901 2.95,-2.397c0.61,0.144 0.4,0.415 4.144,6.653c1.376,2.293 12.638,22.106 13.732,24.031c0.418,0.736 5.084,8.944 5.41,9.098c0.044,0.021 1.584,-0.029 1.623,-0.053c0.08,-0.049 11.464,-19.95 12.912,-22.33c2.442,-4.011 2.153,-4.802 3.344,-4.936c1.365,-0.153 1.303,0.205 2.049,1.356c0.85,1.311 0.593,1.457 9.75,16.925c0.452,0.763 5.498,9.866 6.708,11.75c0.822,1.279 14,24.458 15.495,26.861Z" style="fill:#020202;"/><path d="M135.804,118.631c0.299,-0.136 0.598,-0.271 0.897,-0.407c1.301,-8.055 2.122,-9.229 4.831,-21.765c0.349,-1.616 4.364,-20.196 4.364,-20.196c0.21,-0.167 0.534,0.063 0.802,0.061c0.286,-0.002 0.607,-0.211 0.857,-0.071c0.254,0.142 0.279,0.51 0.4,0.775c4.011,8.806 5.974,9.122 5.753,13.414c-1.077,20.944 -2.296,21.346 -0.03,24.453c0.573,0.786 5.103,6.998 6.977,9.968c0.343,0.543 3.841,6.088 4.198,6.846c0.069,0.147 0.821,1.741 1.893,0.732c0.728,-0.685 0.238,-0.809 -0.075,-1.742c-0.158,-0.47 -0.19,-0.975 -0.339,-1.448c-0.283,-0.896 -0.923,-1.727 -3.072,-7.115c-3.637,-9.119 -3.565,-9.295 -2.795,-13.382c0.759,-4.03 0.571,-4.055 0.871,-4.871c0.417,-1.135 0.887,-0.4 1.101,-0.397c0.241,0.003 0.438,-0.392 0.659,-0.297c0.26,0.111 0.272,0.495 0.395,0.749c4.876,10.028 5.76,10.272 10.013,17.974c3.042,5.508 12.46,21.492 12.495,21.852c0.016,0.164 0.162,1.665 -0.688,1.939c-0.911,0.294 -0.937,-0.02 -11.965,-0.094c-3.425,-0.023 -4.532,-0.618 -15.848,-6.468c-4.354,-2.251 -4.687,-2.138 -8.49,-0.303c-5.912,2.852 -12.06,6.959 -16.911,6.848c-3.292,-0.076 -5.121,0.022 -4.514,-3.003c1.596,-7.947 1.957,-7.848 3.612,-15.766c0.477,-2.284 -0.303,-3.153 -3.784,-7.473c-1.549,-1.922 -5.069,-6.998 -5.107,-7.007c-0.329,-0.077 -0.665,0.146 -0.971,0.29c-1.091,0.515 -0.942,0.776 -0.645,1.956c0.184,0.733 1.929,7.314 1.461,9.683c-0.36,1.822 -8.337,14.13 -10.613,18.297c-1.965,3.599 -3.409,2.948 -9.769,2.948l-75.223,0c-9.938,0 -9.938,0.258 -10.789,0.115c-0.214,-0.036 -1.26,-1.162 -1.092,-1.835c0.249,-0.995 5.023,-8.125 12.298,-21.631c0.724,-1.344 0.525,-1.845 2.043,-1.786c1.114,0.043 0.993,0.353 1.422,1.376c0.203,0.483 1.994,4.746 2.571,6.016c0.869,1.912 1.337,2.383 3.042,1.143c0.294,-0.214 4.103,-4.848 4.454,-5.274c2.434,-2.961 2.839,-2.509 6.631,-3.162c2.977,-0.513 2.169,-3.87 1.815,-7.114c-0.613,-5.625 -0.87,-5.584 -0.913,-6.074c-0.019,-0.223 -0.262,-3.003 1.547,-2.334c0.218,0.08 0.133,0.453 0.265,0.644c0.191,0.275 0.51,0.448 0.691,0.73c0.294,0.458 0.234,1.243 2.374,4.855c0.613,1.035 4.832,8.768 6.157,10.86c2.457,3.877 2.056,4.784 3.852,4.591c1.223,-0.131 1.028,-1.12 3.367,-4.902c4.813,-7.782 4.31,-8.274 5.076,-8.466c1.589,-0.399 1.782,-0.091 2.28,1.464c0.699,2.182 3.786,9.115 4.54,11.032c1.98,5.031 1.35,5.273 2.636,7.51c0.137,0.238 0.087,0.635 0.336,0.751c1.867,0.874 1.87,-2.247 1.87,-2.496c0.009,-9.884 1.836,-15.14 2.672,-30.327c0.095,-1.73 -0.203,-2.494 1.51,-2.318c1.222,0.126 1.192,1.862 3.394,4.992c3.313,4.711 2.914,4.952 3.239,5.331c0.12,0.14 1.313,0.269 1.565,0.127c0.594,-0.336 0.938,-2.918 1.905,-6.742c2.456,-9.718 2.632,-9.653 5.043,-19.37c3.311,-13.346 2.969,-13.42 3.397,-14.536c0.107,-0.279 1.469,-1.016 1.8,-0.955c1.211,0.222 1.877,9.187 2.475,12.96c0.753,4.75 3.597,2.314 6.328,3.566c1.454,0.667 3.819,6.185 6.979,11.126c2.908,4.547 5.89,11.546 6.672,13.017c4.826,9.072 4.42,10.469 4.922,10.576c0.323,0.069 0.565,-0.507 0.888,-0.439Z" style="fill:#fdfdfd;"/></g></svg>