<?xml version="1.0" encoding="UTF-8" standalone="no"?><!DOCTYPE svg PUBLIC "-//W3C//DTD SVG 1.1//EN" "http://www.w3.org/Graphics/SVG/1.1/DTD/svg11.dtd"><svg width="100%" height="100%" viewBox="0 0 500 500" version="1.1" xmlns="http://www.w3.org/2000/svg" xmlns:xlink="http://www.w3.org/1999/xlink" xml:space="preserve" xmlns:serif="http://www.serif.com/" style="fill-rule:evenodd;clip-rule:evenodd;stroke-linejoin:round;stroke-miterlimit:2;"><g><path d="M289.332,323.979c17.74,-109.504 119.284,-123.546 151.84,-116.986c5.293,1.067 4.684,2.798 8.004,26.71c0.744,5.361 -8.346,1.047 -18.203,0.638c-87.464,-3.635 -122.198,75.915 -113.454,122.665c8.171,43.688 29.961,58.351 34.406,63.717c1.372,1.656 1.398,4 -22.733,14.359c-5.665,2.432 -22.681,-25.842 -23.599,-27.54c-20.963,-38.765 -17.66,-68.258 -16.262,-83.562Z" style="fill:#010101;"/><path d="M50.538,236.321c0.729,-7.581 0.608,-7.56 0.988,-8.855c1.998,-6.822 87.528,-19.134 137.463,42.636c67.285,83.231 8.126,167.627 1.703,171.403c-2.665,1.567 -26.012,-8.969 -26.495,-9.56c-1.799,-2.202 0.143,-2.227 5.948,-9.374c44.022,-54.204 19.679,-143.635 -49.236,-166.645c-36.383,-12.148 -62.338,-2.383 -68.405,-0.791c-4.059,1.065 -2.468,-9.845 -1.966,-18.813Z" style="fill:#010101;"/><path d="M244.283,163.302c0.409,-0.038 28.672,0.13 55.568,-17.714c13.353,-8.859 24.961,-21.551 31.351,-32.176c17.512,-29.119 10.488,-39.946 18.218,-35.363c21.945,13.012 21.552,14.569 20.862,17.316c-13.68,54.445 -85.231,118.037 -173.048,89.057c-42.126,-13.902 -71.615,-49.189 -82.094,-77.818c-1.751,-4.782 21.168,-20.028 22.317,-19.689c1.179,0.348 8.569,29.328 32.428,49.719c33.088,28.277 65.87,26.628 74.399,26.668Z" style="fill:#010101;"/><path d="M425.915,384.063c-57.158,-5.149 -52.05,-71.428 -14.073,-83.351c49.113,-15.418 73.903,46.781 42.803,72.163c-14.164,11.56 -24.193,10.631 -28.729,11.188Z"/><path d="M41.627,358.204c3.843,-58.602 81.587,-50.952 85.291,-3.766c4.461,56.827 -82.192,67.372 -85.291,3.766Z"/><path d="M458.236,144.846c-7.614,65.142 -91.794,48.361 -85.038,-7.537c5.35,-44.262 81.276,-54.036 85.038,7.537Z"/><path d="M74.131,118.929c2.677,0.327 15.072,-0.48 28.714,11.209c33.039,28.309 2.25,89.481 -45.02,71.346c-38.699,-14.846 -36.165,-79.719 16.306,-82.555Z"/><path d="M303.139,448.357c-1.609,12.589 -0.163,13.214 -7.173,23.859c-27.762,42.159 -94.803,8.244 -75.26,-40.145c15.318,-37.927 78.658,-35.905 82.434,16.287Z"/><path d="M196.836,54.671c1.536,-44.426 52.283,-56.341 76.019,-27.196c31.676,38.894 -20.454,92.754 -60.794,59.534c-15.803,-13.013 -15.068,-30.857 -15.226,-32.338Z"/><path d="M321.098,345.476c0.016,-1.316 0.165,-13.95 0.826,-16.425c1.034,-3.868 26.92,12.244 45.064,35.881c8.438,10.993 17.885,29.737 17.909,32.652c0.03,3.559 -21.031,18.257 -21.412,18.433c-4.374,2.022 -3.603,-23.827 -35.515,-51.289c-5.407,-4.653 -5.699,-5.001 -6.873,-19.253Z" style="fill:#010101;"/><path d="M187.711,350.54c0.126,13.887 1.412,14.731 -4.317,20.399c-25.42,25.149 -28.141,54.474 -30.468,54.8c-0.717,0.101 -25.298,-12.348 -23.587,-17.869c2.123,-6.852 14.516,-46.842 52.756,-72.51c4.852,-3.257 4.5,7.034 5.616,15.18Z" style="fill:#010101;"/><path d="M280.425,127.132c0.511,-3.249 2.949,-28.602 21.643,-56.814c6.77,-10.218 8.188,-9.456 12.137,-8.176c22.602,7.322 22.453,9.861 21.288,11.402c-18.5,24.461 -19.943,24.255 -27.403,58.671c-0.97,4.474 -22.036,16.572 -26.892,18.082c-1.77,0.551 -4.017,-0.515 -0.772,-23.163Z" style="fill:#010101;"/><path d="M449.351,266.803c-0.005,0.036 -0.237,9.808 -2.915,10.573c-40.317,11.508 -93.565,-6.255 -91.713,-11.929c0.514,-1.573 23.073,-18.296 27.918,-17.202c10.498,2.37 21.946,7.355 49.624,3.255c11.656,-1.726 17.525,-6.845 17.489,0.018c-0.04,7.646 -0.075,7.562 -0.404,15.286Z" style="fill:#010101;"/><path d="M210.549,144.788c0.23,6.898 2.568,10.159 -1.765,8.778c-6.858,-2.187 -26.895,-10.764 -28.304,-16.264c-11.919,-46.542 -38.407,-54.482 -32.36,-58.055c22.921,-13.545 24.58,-12.039 26.255,-10.518c11.515,10.453 30.116,40.428 34.463,65.93c1.597,9.368 1.564,9.328 1.71,10.13Z" style="fill:#010101;"/><path d="M104.493,294.17c-3.787,0.634 -34.359,5.752 -47.982,1.309c-1.845,-0.602 -3.177,-1.036 -5.527,-23.614c-0.048,-0.459 -0.601,-5.778 1.511,-5.561c9.802,1.008 29.171,7.801 63.403,-5.015c7.486,-2.803 32.035,13.089 31.273,15.371c-0.342,1.023 -12.398,7.74 -23.431,11.888c-7.122,2.677 -17.689,5.245 -19.248,5.623Z" style="fill:#010101;"/><path d="M205.825,200.587c-1.489,4.227 -12.493,35.468 -26.711,49.239c-2.758,2.671 -4.665,-2.221 -19.607,-11.488c-9.271,-5.75 -0.631,-7.353 5.45,-16.451c15.783,-23.614 13.749,-39.51 18.473,-37.947c1.74,0.576 1.551,1.02 21.591,7.659c4.402,1.458 1.415,6.66 0.803,8.987Z" style="fill:#010101;"/><path d="M318.215,192.971c13.283,24.263 16.234,22.098 23.832,31.912c2.263,2.923 -1.554,2.071 -17.829,17.636c-2.527,2.417 -4.799,1.05 -14.999,-11.439c-12.018,-14.715 -24.854,-39.723 -21.551,-42.83c1.387,-1.305 2.14,0.167 21.609,-9.983c2.796,-1.458 2.622,0.61 8.938,14.705Z" style="fill:#010101;"/><path d="M258.284,339.651c-15.528,0.706 -15.529,0.636 -30.455,4.707c-4.787,1.306 -1.902,-2.637 -6.736,-21.619c-2.1,-8.246 2.143,-7.001 10.586,-8.542c29.855,-5.45 54.55,-1.819 54.097,2.064c-2.804,24.019 -1.275,25.044 -3.25,25.661c-1.859,0.581 -1.785,-1.468 -24.242,-2.27Z" style="fill:#010101;"/></g></svg>