<?xml version="1.0" encoding="UTF-8" standalone="no"?><!DOCTYPE svg PUBLIC "-//W3C//DTD SVG 1.1//EN" "http://www.w3.org/Graphics/SVG/1.1/DTD/svg11.dtd"><svg width="100%" height="100%" viewBox="0 0 200 200" version="1.1" xmlns="http://www.w3.org/2000/svg" xmlns:xlink="http://www.w3.org/1999/xlink" xml:space="preserve" xmlns:serif="http://www.serif.com/" style="fill-rule:evenodd;clip-rule:evenodd;stroke-linejoin:round;stroke-miterlimit:2;"><g id="Спускане"><path d="M89.939,2.691c5.624,0.28 5.589,0.326 11.201,-0.263c13.51,1.665 40.949,3.62 66.551,28.303c42.342,40.822 35.947,103.757 2.322,136.692c-1.161,1.137 -10.587,10.37 -15.348,13.303c-6.153,3.791 -39.109,25.613 -83.627,12.025c-67.405,-20.572 -87.242,-101.805 -48.973,-150.454c26.526,-33.72 56.444,-36.139 67.875,-39.606Z"/><path d="M73.885,120.095c-11.202,17.368 -13.888,22.108 -18.056,19.08c-3.369,-2.447 -0.568,-8.2 11.839,-25.385c10.645,-14.746 16.901,-34.251 26.559,-33.269c1.407,0.143 3.485,0.354 15.535,8.43c10.552,7.072 10.413,-2.559 25.119,-21.276c0.443,-0.564 5.146,-6.549 8.467,-2.946c2.491,2.702 2.077,3.998 -16.612,30.149c-8.309,11.626 -11.579,8.396 -23.619,0.763c-4.714,-2.988 -9.102,-6 -12.573,-1.215c-6.913,9.528 -7.533,9.068 -12.906,19.511c-0.264,0.513 -0.979,1.903 -3.752,6.158Z" style="fill:#f4f8fa;"/><path d="M87.911,111.061c1.25,-0.284 1.625,-2.271 2.875,-2.555c4.496,-1.023 21.672,15.983 25.767,16.379c7.642,0.737 20.686,-21.548 26.878,-14.78c2.778,3.036 1.085,5.253 -16.581,20.66c-9.336,8.143 -11.6,5.579 -23.379,-3.373c-9.994,-7.595 -9.719,-7.853 -10.62,-8.46c-1.44,-0.968 -3.127,-1.556 -4.496,-2.622c-0.625,-0.487 -0.743,-1.457 -1.369,-1.944l0.926,-3.305Z" style="fill:#f3f7fa;"/><path d="M58.153,108.299c-0.977,-0.984 -1.343,-0.351 -2.334,-1.349c-0.161,-0.162 -1.34,-1.35 -1.445,-2.458c-0.612,-6.481 6.978,-4.637 7.668,-4.47c4.638,1.127 2.479,7.381 -0.214,8.185c-1.174,0.35 -2.501,-0.258 -3.675,0.092Z" style="fill:#ecf3f7;"/></g></svg>