<?xml version="1.0" encoding="UTF-8" standalone="no"?><!DOCTYPE svg PUBLIC "-//W3C//DTD SVG 1.1//EN" "http://www.w3.org/Graphics/SVG/1.1/DTD/svg11.dtd"><svg width="100%" height="100%" viewBox="0 0 200 200" version="1.1" xmlns="http://www.w3.org/2000/svg" xmlns:xlink="http://www.w3.org/1999/xlink" xml:space="preserve" xmlns:serif="http://www.serif.com/" style="fill-rule:evenodd;clip-rule:evenodd;stroke-linejoin:round;stroke-miterlimit:2;"><g id="Разстояние"><path d="M75.509,103.043c-6.014,-0.302 -5.999,-0.145 -12.015,-0.326c-16.087,-0.484 -16.065,-0.571 -38,-0.847c-7.172,-0.09 -7.491,0.132 -9.442,-1.949c-7.311,-7.802 -10.987,-12.049 -11.915,-13.121c-0.544,-0.629 -1.468,-1.334 -1.048,-2.444c0.104,-0.274 0.245,-0.647 2.684,-2.485c8.856,-6.675 9.584,-7.176 10.442,-7.765c3.159,-2.171 3.496,-1.279 13.297,-1.064c9.182,0.201 10.689,0.833 18.006,1.032c8.493,0.231 8.462,0.466 16.971,0.725c13.618,0.414 13.589,0.741 16.995,0.96c1.745,0.113 2.155,0.334 2.733,-1.314c0.054,-0.152 0.042,-2.424 0.042,-9.943c0,-13.693 0.183,-14.103 -0.948,-14.557c-1.275,-0.511 -35.153,0.854 -60.819,1.124c-10.764,0.113 -10.827,0.072 -11.218,-0.278c-0.86,-0.769 -0.673,-1.636 -0.611,-3.284c0.55,-14.591 0.082,-19.596 1.225,-20.567c1.194,-1.015 10.682,-0.95 15.622,-1.242c15.822,-0.936 17.692,-0.512 23.003,-1.048c12.89,-1.301 31.24,-0.978 33.115,-1.987c1.183,-0.637 0.414,-8.578 0.654,-10.19c0.322,-2.159 2.611,-1.717 7.217,-1.717c15.863,0 16.218,-0.156 16.731,0.869c0.412,0.822 0.186,6.404 0.242,7.879c0.007,0.181 0.065,1.693 1.013,2.029c1.331,0.471 27.387,-1.44 33.029,-1.565c15.27,-0.338 30.848,-1.604 37.972,-1.805c5.2,-0.147 4.897,1.353 5.319,4.293c0.502,3.502 4.979,2.303 6.781,2.706c0.526,0.118 1.113,0.249 5.624,3.72c0.732,0.563 0.533,0.7 0.547,1.613c0.032,2.01 -0.617,1.771 -1.964,3.267c-2.619,2.907 -2.589,2.914 -5.227,5.801c-6.351,6.95 -6.438,7.663 -9.075,7.78c-11.384,0.506 -23.921,0.651 -26.002,0.676c-17.008,0.197 -16.978,0.585 -29.983,0.828c-16.602,0.31 -17.46,-0.136 -17.879,1.687c-0.414,1.801 -0.158,20.21 -0.134,21.967c0.045,3.272 -0.252,4.33 3.029,4.531c14.726,0.905 14.71,0.988 15.992,1.013c12.808,0.252 13.73,0.579 17.971,0.739c12.469,0.469 12.426,0.844 19.997,1.087c23.13,0.743 24.228,1.087 24.785,1.811c0.442,0.574 0.499,3.506 0.505,3.814c0.359,18.389 0.352,18.422 0.031,19.181c-0.559,1.319 -2.293,0.815 -14.301,0.61c-37.558,-0.64 -37.538,-1.174 -52.01,-1.298c-14.062,-0.121 -15.019,-0.425 -15.646,0.706c-0.423,0.763 -0.373,0.842 -0.377,81.806c-0,1.807 0.565,4.658 -1.979,4.902c-0.288,0.028 -19.85,0.013 -19.985,0.008c-1.258,-0.049 -2.037,-0.38 -2.227,-1.883c-0.041,-0.328 -0.001,-82.355 -0.039,-84.016c-0.027,-1.148 0.145,-1.27 -0.728,-2.029c-0.712,-0.619 -7.362,-0.455 -8.003,-0.439Z"/></g></svg>