<?xml version="1.0" encoding="UTF-8" standalone="no"?><!DOCTYPE svg PUBLIC "-//W3C//DTD SVG 1.1//EN" "http://www.w3.org/Graphics/SVG/1.1/DTD/svg11.dtd"><svg width="100%" height="100%" viewBox="0 0 200 200" version="1.1" xmlns="http://www.w3.org/2000/svg" xmlns:xlink="http://www.w3.org/1999/xlink" xml:space="preserve" xmlns:serif="http://www.serif.com/" style="fill-rule:evenodd;clip-rule:evenodd;stroke-linejoin:round;stroke-miterlimit:2;"><g id="Време"><path d="M13.5,0l174,-0c0.084,0.505 0.313,0.978 0.397,1.483c0.217,1.295 0.032,16.59 0.014,18.032c-0.048,3.931 -1.964,3.088 -8.41,3.111c-3.196,0.011 -4.336,-0.352 -4.417,2.857c-0.052,2.081 -0.006,132.496 -0.002,144.017c0.003,7.462 -0.311,8.958 1.489,9.695c0.335,0.137 4.182,0.066 6.928,0.086c3.327,0.025 4.382,-0.11 4.403,3.211c0.008,1.282 0.098,15.196 0.002,16.024c-0.059,0.509 -0.346,0.973 -0.405,1.482l-174,0c0.052,-0.514 0.304,-0.995 0.355,-1.509c0.048,-0.479 -0.131,-17.265 0.123,-17.852c0.791,-1.823 4.074,-1.36 4.521,-1.36c5.053,-0.003 6.938,0.301 7.752,-0.947c0.486,-0.744 0.431,-0.83 0.431,-38.831c-0,-114.637 0.009,-114.633 -0.071,-115.022c-0.336,-1.634 -1.907,-1.797 -2.13,-1.821c-1.78,-0.185 -8.704,0.325 -9.799,-0.437c-1.01,-0.702 -0.822,-0.999 -0.831,-18.722c-0.001,-1.763 -0.104,-1.734 -0.352,-3.499Z" style="fill:#030303;"/><path d="M152.957,29.511c-0.022,0.967 -0.079,3.441 -1.247,12.023c-0.127,0.93 -2.246,12.442 -6.574,22.809c-11.185,26.79 -29.031,34.322 -33.631,35.167c-2.374,0.436 -2.825,-0.043 -3.041,0.968c-0.073,0.338 -0.144,0.729 0.012,1.038c0.111,0.22 0.455,0.192 0.67,0.314c1.771,1.003 2.081,0.099 6.254,1.909c1.707,0.74 9.039,3.519 18.412,14.506c7.327,8.589 15.698,25.679 18.088,44.202c0.612,4.744 0.939,4.698 1.069,10.042c0.047,1.942 0.585,5.037 -0.432,6.049c-1.827,1.818 -5.54,-1.819 -5.899,-2.171c-0.243,-0.238 -0.221,-0.252 -2.995,-3.01c-3.774,-3.752 -3.965,-3.532 -7.674,-7.333c-0.74,-0.759 -0.68,-0.796 -1.44,-1.551c-14.621,-14.524 -14.773,-14.653 -16.15,-15.827c-3.036,-2.587 -8.097,-5.516 -12.859,-6.258c-0.668,-0.104 -11.377,-3.035 -22.439,6.633c-8.05,7.036 -13.342,13.409 -22.779,22.259c-6.175,5.791 -8.001,8.797 -10.836,7.272c-1.265,-0.681 -0.926,-1.725 -0.259,-11.081c0.133,-1.867 1.697,-15.471 6.237,-26.994c1.242,-3.152 6.233,-17.306 19.018,-29.021c0.531,-0.487 3.839,-3.342 6.182,-4.724c8.171,-4.819 9.816,-4.07 12.165,-4.955c1.15,-0.433 1.191,-1.11 0.045,-1.543c-2.896,-1.094 -3.104,-0.458 -7.469,-2.468c-9.536,-4.39 -29.5,-19.904 -35.325,-57.2c-1.093,-6.996 -0.873,-7.001 -1.438,-14.074c-0.341,-4.273 1.712,-3.575 8.88,-3.575c93.798,-0 93.8,-0.004 93.937,0.031c1.731,0.439 1.732,0.769 1.726,2.552c-0.003,0.79 -0.021,0.781 -0.206,4.011Z" style="fill:#fcfcfc;"/><path d="M40.299,36.519c1.104,12.262 5.553,24.86 6.29,26.947c9.428,26.701 24.788,35.337 25.153,36.944c0.687,3.024 -4.32,2.34 -14.505,16.91c-13.308,19.039 -16.217,42.929 -16.49,44.223c-0.215,1.019 -0.286,1.353 -1.233,12.958c-0.175,2.149 0.456,5.17 -2.98,4.736c-2.323,-0.293 -1.858,-1.984 -1.889,-10.738c0,-46 0.001,-92 0.001,-137.999c-0,-5.57 -0.292,-7.538 1.878,-7.849c0.271,-0.039 2.663,-0.382 2.866,1.865c0.087,0.959 0.045,0.946 0.909,12.003Z" style="fill:#fafafa;"/><path d="M167.132,160.5c0,17.277 0.098,17.414 -0.521,18.095c-0.331,0.364 -4.105,2.223 -4.339,-2.084c-0.744,-13.683 -2.365,-38.725 -20.248,-62.655c-3.006,-4.022 -6.942,-7.662 -7.602,-8.272c-3.827,-3.539 -5.507,-4.066 -3.813,-5.981c0.601,-0.679 1.038,-0.219 8.2,-7.822c0.239,-0.253 9.198,-9.722 15.387,-25.405c9.051,-22.938 7.304,-40.899 8.476,-42.772c0.615,-0.982 3.824,-1.976 4.44,0.94c0.024,0.115 0.022,0.114 0.022,135.956Z" style="fill:#fafafa;"/><path d="M130.535,72.528c-1.704,2.118 -9.833,14.417 -23.01,17.082c-0.198,0.04 -5.266,0.731 -6.029,0.773c-2.272,0.124 -8.252,-0.61 -11.887,-2.153c-10.704,-4.544 -15.479,-12.21 -18.253,-15.614c-1.332,-1.634 -1.3,-1.628 -2.67,-3.251c-0.802,-0.949 -0.839,-0.912 -0.875,-1.013c-0.648,-1.816 1.502,-1.776 1.699,-1.772c17.984,0.335 55.192,0.125 59.992,0.098c0.397,-0.002 3.601,-0.14 3.908,0.024c0.177,0.094 0.722,1.216 0.697,1.62c-0.017,0.265 -0.268,0.098 -2.216,2.477c-0.707,0.864 -0.66,0.873 -1.354,1.73Z" style="fill:#030303;"/></g></svg>