<?xml version="1.0" encoding="UTF-8" standalone="no"?><!DOCTYPE svg PUBLIC "-//W3C//DTD SVG 1.1//EN" "http://www.w3.org/Graphics/SVG/1.1/DTD/svg11.dtd"><svg width="100%" height="100%" viewBox="0 0 200 200" version="1.1" xmlns="http://www.w3.org/2000/svg" xmlns:xlink="http://www.w3.org/1999/xlink" xml:space="preserve" xmlns:serif="http://www.serif.com/" style="fill-rule:evenodd;clip-rule:evenodd;stroke-linejoin:round;stroke-miterlimit:2;"><g id="Включено-изхранване" serif:id="Включено изхранване"><path d="M114.111,55.493c0.563,-10.19 7.022,-25.485 20.522,-35.813c5.273,-4.034 13.43,-8.196 19.862,-8.365c0.987,-0.026 7.688,-0.202 10.553,6.398c7.194,16.576 -0.628,35.57 -5.885,43.568c-3.005,4.572 -5.105,6.736 -5.617,7.263c-2.505,2.581 -3.31,3.623 -7.854,6.294c-5.903,3.469 -16.961,3.914 -20.211,7.641c-4.078,4.678 -3.84,4.892 -15.082,28.97c-1.458,3.122 -0.179,3.664 5.004,11.118c21.108,30.36 37.495,49.738 34.515,61.051c-1.569,5.955 -7.888,5.891 -14.045,-0.49c-8.726,-9.044 -21.105,-39.962 -25.747,-49.446c-4.373,-8.933 -4.183,-11.007 -5.801,-9.457c-0.708,0.679 -0.651,1.156 -1.076,2.15c-0.324,0.758 -5.819,11.785 -5.942,12.018c-3.844,7.279 -3.704,7.347 -4.06,7.968c-3.146,5.49 -11.152,22.019 -19.944,32.982c-8.961,11.175 -13.785,8.749 -14.99,6.255c-1.344,-2.78 -0.812,-5.888 0.01,-9.148c0.491,-1.945 2.085,-8.267 10.498,-22.774c3.268,-5.635 3.438,-5.516 6.756,-11.129c4.406,-7.452 19.677,-30.004 20.253,-30.821c1.947,-2.764 2.06,-3.137 0.379,-6.063c-5.35,-9.311 -7.465,-11.344 -10.339,-13.639c-5.324,-4.25 -9.924,-1.755 -18.966,-10.918c-5.371,-5.443 -14.89,-21.194 -21.039,-32.794c-8.343,-15.739 -8.361,-15.725 -8.97,-16.986c-3.174,-6.57 -4.949,-8.809 -4.224,-9.722c0.632,-0.796 1.535,0.02 1.632,0.108c0.101,0.092 3.51,6.102 3.999,6.901c0.373,0.609 0.33,0.626 4.362,7.79c2.502,4.446 4.718,8.204 5.136,8.913c6.956,11.797 8.512,14.234 9.288,15.45c0.592,0.928 6.807,10.662 7.631,11.447c1.16,1.105 2.019,0.881 1.906,-0.716c-0.035,-0.491 -1.225,-2.67 -1.348,-2.894c-10.553,-19.313 -10.561,-19.29 -15.429,-28.287c-11.148,-20.604 -11.849,-20.77 -11.105,-21.64c1.082,-1.266 2.883,1.868 3.984,3.655c0.361,0.587 3.312,5.38 4.597,7.28c2.074,3.069 24.005,37.766 24.178,37.886c1.337,0.927 1.776,0.068 1.844,-0.063c0.785,-1.534 -10.562,-21.65 -13.37,-27.175c-11.688,-23 -12.301,-22.685 -12.973,-24.822c-0.308,-0.979 -0.521,-1.416 0.506,-1.475c1.258,-0.073 3.64,4.584 5.308,7.296c1.078,1.753 1.049,1.747 1.144,1.897c6.738,10.575 6.693,10.593 7.307,11.494c2.123,3.114 12.945,20.771 15.985,25.04c1.669,2.344 2.856,4.293 3.919,3.415c0.846,-0.699 -0.315,-2.674 -0.791,-3.551c-0.529,-0.975 -5.545,-10.223 -6.551,-12.224c-2.585,-5.143 -2.578,-5.131 -8.647,-16.671c-0.466,-0.887 -4.791,-9.111 -5.744,-11.132c-1.453,-3.083 -4.351,-8.07 -4.7,-9.06c-0.046,-0.131 -0.544,-1.541 0.743,-1.564c0.998,-0.018 2.844,3.577 8.276,12.437c3.06,4.992 3.102,4.961 3.362,5.398c4.444,7.469 4.557,7.38 4.939,8.031c5.822,9.92 11.527,18.712 14.363,23.797c1.095,1.963 2.575,1.004 2.606,0.803c0.308,-1.991 -9.468,-19.32 -10.387,-20.95c-16.196,-28.709 -16.622,-28.454 -17.945,-30.996c-0.886,-1.704 0.078,-2.844 1.48,-1.53c0.696,0.652 6.224,9.483 6.747,10.319c0.424,0.677 3.955,6.319 5.369,8.419c1.035,1.537 10.64,17.041 15.527,26.709c5.193,10.272 6.066,14.292 6.846,19.135c0.776,4.821 -1.614,10.718 -1.381,15.035c0.337,6.233 6.189,15.702 6.345,15.814c0.175,0.125 1.343,0.07 1.6,-0.119c0.279,-0.206 0.024,-0.396 2.444,-3.581c1.254,-1.65 1.21,-1.754 2.069,-2.961c2.983,-4.189 3.022,-4.154 3.276,-4.522c6.91,-9.989 7.392,-13.08 6.764,-16.699c-1.006,-5.798 -3.537,-11.004 -3.671,-17.952Z" style="fill:#010101;"/></g></svg>