<?xml version="1.0" encoding="UTF-8" standalone="no"?><!DOCTYPE svg PUBLIC "-//W3C//DTD SVG 1.1//EN" "http://www.w3.org/Graphics/SVG/1.1/DTD/svg11.dtd"><svg width="100%" height="100%" viewBox="0 0 500 500" version="1.1" xmlns="http://www.w3.org/2000/svg" xmlns:xlink="http://www.w3.org/1999/xlink" xml:space="preserve" xmlns:serif="http://www.serif.com/" style="fill-rule:evenodd;clip-rule:evenodd;stroke-linejoin:round;stroke-miterlimit:2;"><g><path d="M235.754,155.365c-2.7,3.23 -3.231,2.43 -3.996,2.628c-0.47,0.122 -1.143,2.41 -1.27,2.482c-1.702,0.967 -2.663,0.752 -1.945,2.003c3.108,5.417 3.892,-0.461 9.401,-3.276c9.616,16.735 9.362,16.977 10.809,17.804c0.318,0.182 8.021,0.612 8.719,0.651c5.429,0.157 4.794,-1.742 11.272,-13.016c2.283,-3.973 13.459,-29.998 42.751,-29.751c13.555,0.114 28.319,7.365 36.732,21.776c8.395,14.379 11.034,20.369 13.282,20.79c27.021,5.053 26.693,9.298 58.198,63.921c1.057,1.833 9.671,16.767 13.245,22.892c-2.869,1.963 -3.247,2.914 -3.386,3.264c-0.185,0.464 -4.478,1.27 -0.708,4.487c1.67,1.425 1.718,-1.595 6.591,-3.484c12.319,22.023 18.01,26.999 13.89,47.936c-0.249,1.264 7.151,11.195 -1.924,14.8c-11.535,4.583 -39.945,-42.383 -147.863,-31.333c-41.379,4.237 -93.715,24.346 -93.748,26.578c-0.019,1.285 0.554,0.984 10.794,11.89c2.885,3.073 3.443,0.863 7.791,-0.266c0.816,8.27 4.845,3.793 5.177,3.424c1.673,-1.859 5.818,-3.515 5.933,-4.785c0.062,-0.683 -1.186,-1.04 -1.125,-1.723c51.398,-15.641 92.442,-13.729 95.132,-13.718c0.426,5.505 -1.792,4.619 -5.526,8.62c-3.565,3.82 -4.237,5.36 -4.474,5.903c-9.852,0.415 -64.569,2.721 -120.169,27.41c-1.869,0.83 -0.761,1.356 0.431,2.968c-0.82,1.755 -0.354,2.752 -2.245,2.328c-2.522,-0.566 -2.077,0.626 -3.181,2.883c-1.125,2.302 -4.518,4.862 -4.979,5.209c-21.348,-19.191 -37.571,-28.472 -46.757,-34.334c1.489,-1.859 1.483,-1.768 3.267,-3.45c0.545,-0.514 3.756,-0.462 4.261,-2.472c1.222,-4.873 -1.054,-4.532 -0.902,-4.901c0.267,-0.652 1.282,-0.787 1.549,-1.439c16.92,10.576 16.727,10.693 32.097,21.967c1.303,0.956 3.32,2.435 19.317,-5.91c2.739,-1.429 -16.68,-17.717 -18.3,-19.076c-49.78,-41.755 -111.64,-63.484 -133.499,-72.231c-11.799,-4.046 -22.588,-5.36 -20.095,-14.374c2.366,-8.556 12.795,-4.212 39.211,6.029c6.545,2.538 9.202,4.214 10.614,1.807c7.003,-11.942 23.628,-41.028 25.671,-44.603c2.34,-4.094 11.176,-23.605 36.696,-26.267c5.474,-0.571 6.707,1.148 9.383,-3.692c9.197,-16.629 20.836,-41.338 51.582,-38.76c1.354,0.113 12.137,1.563 20.763,7.92c6.935,5.111 6.437,5.567 11.533,12.493Z" style="fill:#010101;"/><path d="M220.714,217.625c8.319,-15.137 12.299,-21.105 22.709,-24.375c26.325,-8.271 37.411,21.098 43.324,31.103c11.762,19.904 12.303,24.102 18.793,23.531c3.761,-0.331 5.051,-0.444 26.32,-39.175c12.76,-23.236 39.715,-21.492 51.334,-1.03c6.12,10.777 48.278,83.639 49.456,85.744c2.1,3.751 5.385,17.619 0.818,15.15c-58.64,-31.691 -109.639,-26.501 -148.052,-21.479c-3.661,0.679 -7.323,1.358 -10.984,2.037c-72.871,15.276 -76.441,30.423 -84.506,23.871c-42.144,-34.239 -86.755,-51.714 -95.577,-56.253c-2.212,-1.138 -1.066,-2.323 17.702,-34.507c4.862,-8.337 17.085,-40.359 46.329,-27.494c14.818,6.519 29.853,47.877 36.078,51.811c7.761,4.905 9.196,0.651 26.256,-28.934Z" style="fill:#fefefe;"/><path d="M250.548,71.951c6.322,-0.077 6.31,-0.46 10.01,0.249c46.048,8.832 39.595,71.289 -1.113,75.835c-46.12,5.151 -63.913,-64.978 -8.897,-76.085Z" style="fill:#010101;"/><path d="M165.908,178.723c9.538,-16.765 12.871,-23.253 21.738,-26.875c28.007,-11.439 40.343,19.336 43.578,24.818c3.68,6.236 -0.228,5.845 -2.471,7.233c-16.088,9.962 -26.755,40.108 -29.494,41.141c-1.477,0.557 -1.434,-0.279 -10.569,-16.665c-0.618,-1.017 -1.237,-2.034 -1.855,-3.051c-6.606,-11.414 -6.73,-13.076 -17.252,-20.956c-4.148,-2.38 -4.149,-2.382 -4.284,-2.767c0,0 0.561,-2.65 0.61,-2.88Z" style="fill:#fefefe;"/><path d="M301.649,220.414c-18.078,-31.785 -19.407,-30.913 -23.81,-34.338c-4.393,-3.417 -1.866,-4.573 3.393,-13.728c0.359,-0.624 12.21,-30.543 39.311,-20.973c3.69,1.303 9.645,1.743 22.706,26.259c2.388,4.482 -11.535,1.896 -23.292,22.12c-3.036,5.223 -8.457,14.628 -9.191,15.9c-4.735,8.214 -4.58,9.832 -7.039,8.662c-0.693,-1.301 -1.385,-2.602 -2.078,-3.902Z" style="fill:#fefefe;"/><path d="M125.398,315.686c12.934,6.805 12.779,6.922 25.383,14.375c-0.267,0.652 -1.282,0.787 -1.549,1.439c-0.151,0.369 2.125,0.028 0.902,4.901c-0.504,2.01 -3.715,1.958 -4.261,2.472c-1.784,1.682 -1.777,1.591 -3.267,3.45c-32.281,-19.775 -74.618,-37.933 -101.072,-46.923c-5.666,-1.925 -15.952,-3.722 -12.946,-12.859c2.112,-6.418 11.826,-3.101 12.819,-2.762c47.378,16.177 78.298,33.017 83.991,35.908Z" style="fill:#010101;"/><path d="M329.508,321.336c9.672,0.506 57.693,0.639 104.16,29.924c-1.059,1.192 -0.863,1.248 -2.04,2.296c-1.85,1.648 -2.579,0.873 -3.637,3.163c-0.604,1.307 -4.32,1.403 -1.243,3.581c1.567,1.109 1.931,1.981 2.975,0.389c2.151,-3.278 3.53,-1.839 5.738,-5.189c0.118,-0.179 0.144,-0.137 1.944,-1.848c0.128,0.09 9.576,4.48 6.195,11.896c-1.184,2.597 -5.735,5.863 -10.172,3.077c-27.514,-17.278 -53.413,-32.353 -113.918,-32.765c0.237,-0.543 0.908,-2.083 4.474,-5.903c3.734,-4.001 5.952,-3.115 5.526,-8.62Z" style="fill:#020202;"/><path d="M231.174,109.493c4.379,-33.192 41.373,-26.699 46.49,-5.032c7.412,31.379 -44.211,43.258 -46.49,5.032Z" style="fill:#fefefe;"/><path d="M372.047,270.528c-2.016,-13.265 -3.976,-29.02 -25.445,-41.226c-7.58,-4.31 -4.558,-11.589 -0.013,-13.582c6.1,-2.675 33.822,12.04 39.446,47.845c4.592,29.229 -11.734,18.111 -12.122,17.586c-3.332,-4.517 -1.674,-5.007 -1.866,-10.623Z" style="fill:#010101;"/><path d="M245.099,276.541c-1.226,10.049 -11.186,12.607 -15.766,-0.983c-1.677,-4.977 -12.734,-37.788 9.236,-65.003c5.966,-7.391 17.321,-0.167 11.613,8.736c-18.319,28.571 -8.968,42.234 -5.083,57.25Z" style="fill:#020202;"/><path d="M199.769,366.237c31.323,29.497 35.423,45.194 34.98,47.317c-0.329,1.577 -6.946,13.301 -15.001,-0.203c-2.669,-4.475 -2.682,-4.34 -5.459,-8.716c-1.774,-2.416 -12.503,-17.027 -24.924,-27.977c0.46,-0.347 3.853,-2.907 4.979,-5.209c1.103,-2.257 0.659,-3.449 3.181,-2.883c1.891,0.424 1.424,-0.573 2.245,-2.328Z" style="fill:#020202;"/><path d="M308.1,173.354c-5.321,20.795 4.943,26.18 -5.709,29.822c-19.416,6.639 -9.235,-60.332 7.993,-47.512c5.984,4.453 1.638,8.922 -2.284,17.69Z" style="fill:#010101;"/><path d="M215.952,177.505c-1.458,19.804 -15.996,10.952 -15.273,4.01c0.982,-9.428 -0.397,-9.437 -6.71,-16.465c-6.563,-7.307 2.604,-19.034 12.425,-8.445c9.944,10.721 9.056,16.618 9.559,20.9Z" style="fill:#010101;"/><path d="M285.416,287.095c-1.192,3.334 -0.879,3.585 -1.916,3.954c-1.102,0.393 -1.738,-1.003 -2.931,0.545c-2.417,3.138 -3.695,1.737 -5.938,5.036c-2.45,3.602 -5.527,-2.27 -3.057,-2.915c2.351,-0.614 1.14,-1.627 1.593,-2.215c0.298,-0.386 1.103,-0.17 1.333,-0.599c0.278,-0.521 -0.346,-1.249 -0.068,-1.769c3.661,-0.679 7.323,-1.358 10.984,-2.037Z" style="fill:#0e0e0e;"/><path d="M433.667,351.26c0.59,0.37 0.502,0.394 1.142,0.795c0.206,0.129 0.192,0.118 2.593,1.596c-1.8,1.711 -1.826,1.669 -1.944,1.848c-2.208,3.35 -3.587,1.91 -5.738,5.189c-1.044,1.592 -1.408,0.72 -2.975,-0.389c-3.077,-2.178 0.639,-2.274 1.243,-3.581c1.058,-2.29 1.787,-1.515 3.637,-3.163c1.177,-1.048 0.982,-1.105 2.04,-2.296Z" style="fill:#0d0d0d;"/><path d="M234.375,335.054c-0.062,0.683 1.186,1.04 1.125,1.723c-0.114,1.269 -4.26,2.926 -5.933,4.785c-0.332,0.369 -4.362,4.846 -5.177,-3.424c3.328,-1.028 6.657,-2.056 9.985,-3.084Z" style="fill:#0e0e0e;"/><path d="M301.649,220.414c0.693,1.301 1.385,2.602 2.078,3.902c-1.849,1.92 -2.028,1.625 -4.086,3.309c-1.511,1.236 -2.234,4.977 -5.153,0.884c-1.521,-2.134 1.514,-1.403 2.194,-3.944c0.38,-1.421 2.311,-0.817 3.558,-2.066c0.593,-0.594 0.816,-1.492 1.41,-2.086Z" style="fill:#0f0f0f;"/><path d="M235.754,155.365c1.086,1.948 1.08,1.838 2.191,3.837c-5.51,2.815 -6.293,8.693 -9.401,3.276c-0.718,-1.251 0.243,-1.036 1.945,-2.003c0.127,-0.072 0.8,-2.36 1.27,-2.482c0.765,-0.198 1.296,0.602 3.996,-2.628Z" style="fill:#0f0f0f;"/><path d="M432.953,264.267l2.496,4.266c-4.872,1.889 -4.921,4.909 -6.591,3.484c-3.77,-3.217 0.523,-4.022 0.708,-4.487c0.139,-0.35 0.518,-1.301 3.386,-3.264Z" style="fill:#101010;"/><path d="M165.908,178.723c-0.049,0.23 -0.61,2.88 -0.61,2.88c0.136,0.385 0.136,0.387 4.284,2.767c-0.429,0.14 -0.654,0.672 -1.082,0.812c-1.947,0.635 -2.193,0.266 -3.381,1.984c-0.112,0.162 -1.247,1.803 -2.309,0.873c-2.025,-1.775 -2.946,-2.823 -0.368,-3.795c0.379,-0.143 0.252,0.399 0.686,0.255c1.129,-0.374 -0.04,-4.194 0.983,-5c0.512,-0.404 1.283,-0.373 1.796,-0.777Z" style="fill:#161616;"/><path d="M121.887,318.885c-0.342,0.221 -3.936,2.542 -4.187,2.901c-2.789,3.997 -4.915,-2.691 -3.03,-2.848c2.126,-0.177 0.754,-2.282 2.794,-2.593c1.661,-0.253 1.671,-0.38 1.789,-0.295c1.043,0.759 1.59,2.076 2.634,2.835Z" style="fill:#0f0f0f;"/><path d="M367.825,291.982c-4.564,2.984 -6.378,6.654 -8.104,1.473c-0.722,-2.167 1.953,-0.786 2.724,-2.973c0.603,-1.71 3.608,-1.156 4.344,-0.343c0.473,0.522 0.563,1.321 1.036,1.843Z" style="fill:#0f0f0f;"/><path d="M210.461,224.456c0.392,1.166 2.611,1.352 0.066,4.105c-2.964,3.206 -2.702,3.428 -3.005,3.655c-0.644,0.483 -4.429,-3.91 -1.857,-4.255c1.783,-0.24 1.461,-2.008 4.797,-3.504Z" style="fill:#0f0f0f;"/><path d="M186.835,205.326c0.618,1.017 1.237,2.034 1.855,3.051c-2.749,1.396 -3.262,2.64 -5.243,0.172c-1.639,-2.042 0.311,-2.822 1.053,-2.423c1.904,1.024 2.206,-0.756 2.335,-0.8Z" style="fill:#1b1b1b;"/><path d="M210.608,141.595c-0.094,0.126 -0.405,2.19 -2.173,1.01c-2.962,-1.976 -1.644,-5.228 1.065,-3.249c1.586,1.158 0.78,1.577 1.108,2.239Z" style="fill:#101010;"/><path d="M212.087,311.132c2.425,-1.791 2.326,-1.904 2.754,-1.857c0.401,0.044 -0.185,0.802 -0.133,1.202c0.259,2.006 -0.815,1.679 -2.621,0.655Z" style="fill:#0a0a0a;"/><path d="M217.468,309.496c0.021,-1.023 -1.019,-1.551 0.032,-1.551c0.327,0 1.065,1.27 0.91,1.483c-0.185,0.254 -0.757,-0.186 -0.942,0.068Z" style="fill:#050505;"/><g><path d="M220.556,394.531c-0.03,-0.844 -1.064,-0.129 -1.097,-1.047c-0.003,-0.093 -0.019,-0.521 1.041,-0.51c1.093,0.011 0.02,0.547 0.056,1.557Z" style="fill:#020202;"/></g></g></svg>