<?xml version="1.0" encoding="UTF-8" standalone="no"?><!DOCTYPE svg PUBLIC "-//W3C//DTD SVG 1.1//EN" "http://www.w3.org/Graphics/SVG/1.1/DTD/svg11.dtd"><svg width="100%" height="100%" viewBox="0 0 500 500" version="1.1" xmlns="http://www.w3.org/2000/svg" xmlns:xlink="http://www.w3.org/1999/xlink" xml:space="preserve" xmlns:serif="http://www.serif.com/" style="fill-rule:evenodd;clip-rule:evenodd;stroke-linejoin:round;stroke-miterlimit:2;"><g><path d="M184.482,290.532c-2.009,-2.206 -1.68,-3.507 -3.894,-2.678c-1.185,0.444 -1.016,0.614 -4.227,3.788c-5.198,-6.18 -3.504,-10.292 -3.084,-13.179c0.775,-5.329 -13.381,0.175 -11.101,-19.015c0.191,-1.605 -9.679,-11.467 -1.423,-20.719c3.742,-4.193 -1.992,-4.33 -3.014,-10.281c-1.392,-8.109 2.939,-11.404 3.938,-12.826c1.28,-1.821 -0.948,-5.342 0.687,-10.173c2.473,-7.309 9.577,-8.719 10.129,-8.96c2.765,-1.207 -4.985,-13.38 10.109,-18.698c4.684,-1.65 1.797,-14.301 18.922,-11.424c5.144,0.864 -0.04,-13.55 19.025,-11.148c2.953,0.372 5.275,-6.084 14.885,-4.386c6.124,1.082 6.004,6.758 10.298,2.926c9.128,-8.145 18.879,1.696 20.71,1.441c18.25,-2.535 14.117,12.139 19.022,11.133c15.358,-3.151 15.725,10.23 18.044,11.15c15.366,6.096 9.337,13.297 10.059,18.001c0.14,0.915 13.243,4.308 11.566,15.969c-0.872,6.06 2.806,5.104 4.033,11.108c1.478,7.233 -0.09,7.148 -4.318,13.154c-0.629,0.893 -0.028,0.921 2.208,4.09c6.59,9.343 -2.558,17.821 -2.303,19.645c1.7,12.153 -3.636,14.256 -10.251,17.054c-2.08,0.88 3.394,13.62 -9.162,18.509c-2.941,1.145 -2.724,1.479 -3.85,4.48c-1.428,3.808 -7.121,8.297 -12.969,7.749c-3.592,-0.336 -4.44,-1.04 -5.782,2.354c-3.569,9.026 -12.132,8.863 -14.197,8.573c-6.096,-0.856 -5.075,2.994 -11.104,4.051c-8.525,1.496 -11.99,-3.477 -13.179,-4.332c-1.364,-0.981 -4.635,3.59 -8.823,4.326c-8.05,1.414 -11.258,-2.783 -12.818,-3.884c-1.904,-1.344 -9.806,2.169 -15.735,-4.178c-2.285,-2.446 -3.324,-6.355 -3.474,-6.606c-1.343,-2.244 -6.034,1.771 -12.807,-2.214c-6.344,-3.733 -3.234,-6.595 -8.021,-10.052c2.145,-2.537 2.208,-2.475 2.317,-2.74c0,0 -0.384,-1.85 -0.417,-2.011Z"/><path d="M216.498,181.201c4.753,-0.432 4.913,-0.171 8.693,-3.072c5.449,-4.182 9.14,1.89 16.258,-4.684c3.403,-3.143 3.391,0.733 8.196,2.655c6,2.4 7.263,-2.064 12.124,2.082c7.465,6.367 13.282,-0.452 14.832,4.289c3.495,10.687 9.784,6.714 11.7,12.1c3.685,10.358 11.715,7.31 11.094,10.908c-1.492,8.644 -0.369,8.75 3.753,14.254c1.503,2.006 -3.141,7.514 3.848,15.364c1.893,2.126 0.416,2.313 -1.375,4.493c-5.2,6.33 0.248,10.46 -3.791,15.191c-5.855,6.86 -0.817,13.797 -3.359,14.653c-8.001,2.694 -7.77,3.838 -10.428,9.893c-1.812,4.126 -8.188,0.24 -11.651,12.133c-0.656,2.252 -3.443,-0.144 -7.851,0.414c-6.669,0.844 -5.549,5.682 -11.978,4.294c-7.54,-1.629 -12.042,5.797 -14.1,4.388c-5.847,-4.001 -5.823,-5.133 -13.949,-3.953c-4.745,0.689 -3.63,-6.595 -16.032,-4.172c-3.791,0.741 -0.457,-6.549 -10.08,-10.699c-3.833,-1.653 -3.018,-2.509 -5.102,-6.115c-4.406,-7.623 -10.839,-3.819 -9.468,-9.03c2.122,-8.065 -4.797,-12.932 -4.489,-15.106c1.135,-8.033 0.154,-8.048 -3.903,-13.94c-1.579,-2.293 5.68,-5.401 4.359,-14.1c-1.082,-7.123 6.524,-8.051 4.038,-17.015c-1.587,-5.725 6.308,-1.321 10.424,-11.024c2.839,-6.693 9.092,-3.588 11.824,-12.044c1.243,-3.847 2.418,-2.763 6.413,-2.157Z" style="fill:#fdfdfd;"/><path d="M288.716,250.434c-0.386,0.519 0.587,0.507 0.244,0.968c-0.077,0.103 -0.544,0.731 -1.46,0.666c-0.434,-0.031 -0.566,-0.878 -1,-0.841c-0.639,0.054 -2.075,1.712 -2.228,1.888c-2.368,2.733 -0.357,3.097 -0.484,4.337c-0.249,2.429 -2.873,1.329 -6.67,6.888c-1.65,2.416 -4.894,3.251 -4.837,5.112c0.107,3.504 -3.04,0.945 -4.933,3.909c-0.904,1.415 -0.029,1.696 -0.909,3.085c-0.179,0.283 -0.815,-0.131 -0.994,0.152c0.389,2.52 0.196,2.58 1.861,4.518c-6.248,2.183 -6.326,1.31 -10.801,0.351c-2.765,-0.593 -3.878,5.652 -13.005,5.668c-7.581,0.013 -10.618,-4.685 -11.293,-5.302c-1.192,-1.089 -6.222,1.614 -10.82,0.004c-9.1,-3.187 -10.066,-10.412 -10.486,-11.505c-0.623,-1.623 -12.73,-3.498 -13.265,-14.837c-0.231,-4.884 2.453,-5.634 -1.017,-9.107c-5.244,-5.248 -4.868,-14.837 0.009,-19.763c4.463,-4.507 -0.719,-5.933 1.528,-12.24c3.223,-9.043 10.421,-10.028 11.528,-10.459c1.565,-0.609 4.421,-16.414 19.878,-12.637c3.728,0.911 3.089,-1.555 6.198,-3.358c11.201,-6.496 18.921,3.962 20.746,3.607c19.882,-3.872 15.406,10.687 22.044,12.808c10.283,3.286 11.46,12.93 10.394,17.255c-1.57,6.369 4.445,5.26 5.108,12.944c0.968,11.208 -6.184,10.42 -5.338,15.89Z"/><path d="M224.066,221.353c1.254,-3.754 1.831,-3.383 5.485,-4.717c4.051,-1.48 6.309,-5.366 7.948,-5.125c6.028,0.887 6.006,0.906 12.001,-0.003c1.361,-0.206 3.941,3.738 7.938,5.173c4.651,1.67 4.399,2.21 6.235,6.743c1.57,3.876 5.348,5.136 4.59,8.009c-1.887,7.152 -0.291,8.103 0.208,11.072c0.27,1.607 -3.657,3.781 -5.146,7.929c-1.508,4.2 -1.711,4.285 -5.879,5.933c-4.693,1.856 -6.288,5.411 -7.949,5.178c-5.984,-0.839 -5.954,-1.005 -11.992,-0c-2.09,0.348 -2.485,-3.199 -9.156,-5.627c-3.643,-1.326 -3.427,-1.766 -4.762,-5.451c-1.999,-5.519 -5.863,-4.362 -4.548,-10.081c1.346,-5.849 -1.408,-9.989 -0.086,-11.462c3.071,-3.422 3.105,-3.369 5.112,-7.569Z" style="fill:#fdfdfd;"/><path d="M201.498,65.941c-7.177,-0.907 -6.348,3.453 -13.004,3.507c-18.959,0.155 -17.431,-27.716 -0.011,-26.529c6.891,0.469 6.013,-3.387 11.993,-3.694c17.249,-0.886 19.944,24.79 1.023,26.716Z" style="fill:#020202;"/><path d="M414.038,194.496c0.484,-4.613 -0.193,-4.543 -1.69,-6.901c-4.526,-7.13 0.192,-19.832 11.151,-20.092c14.33,-0.339 13.431,14.376 13.329,16.042c-0.149,2.443 3.894,5.511 3.97,10.951c0.227,16.11 -25.254,18.68 -26.761,-0.001Z"/><path d="M214.83,420.498c-1.317,14.217 -14.369,15.136 -20.453,11.193c-3.495,-2.265 -3.714,-1.444 -7.843,-1.6c-15.053,-0.569 -16.82,-26.369 1.956,-26.496c6.386,-0.043 5.548,4.019 11.972,3.546c2.684,-0.197 13.196,1.35 14.368,13.357Z"/><path d="M285.508,65.941c-18.989,-1.71 -16.36,-27.776 1.018,-26.711c6.12,0.375 5.241,4.145 11.989,3.687c16.971,-1.151 19.148,26.362 -0.01,26.541c-6.493,0.06 -5.684,-4.476 -12.997,-3.517Z"/><path d="M427.491,265.128c14.309,1.473 14.994,14.452 11.119,20.443c-2.821,4.363 -0.416,5.004 -2.015,9.962c-6.274,19.46 -35.387,7.309 -22.96,-11.938c0.837,-1.296 -1.365,-17.175 13.855,-18.467Z" style="fill:#020202;"/><path d="M59.502,265.143c14.178,1.228 13.13,14.691 13.001,16.357c-0.058,0.744 7.712,10.21 0.576,19.626c-6.474,8.543 -23.609,3.253 -23.221,-8.632c0.142,-4.338 -0.269,-4.25 -2.211,-8.066c-3.338,-6.558 -1.258,-18.172 11.856,-19.286Z"/><path d="M378.42,86.647c4.077,3.101 3.774,3.327 6.173,7.794c0.123,0.229 13.969,6.154 9.803,18.02c-3.337,9.505 -18.388,14.246 -25.087,0.117c-1.174,-2.476 -11.552,-3.872 -10.537,-17.035c0.446,-5.792 8.786,-12.827 16.756,-10.127c0.992,0.336 1.9,0.895 2.892,1.231Z" style="fill:#010101;"/><path d="M92.1,105.41c0.015,-0.047 1.105,-5.808 6.507,-8.736c7.949,-4.309 4.525,-9.139 12.858,-11.286c16.416,-4.229 22.302,17.94 10.17,24.345c-3.222,1.701 -3.387,1.582 -4.934,4.876c-2.983,6.35 -11.964,6.934 -14.157,6.608c-11.79,-1.756 -10.589,-14.297 -10.444,-15.806Z"/><path d="M97.6,370.139c-3.242,-4.902 -1.314,1.945 -1.478,2.361c-0.182,0.46 -0.668,0.757 -0.85,1.218c-7.662,-9.04 -2.343,-25.635 14.969,-20.864c7.408,2.041 3.85,6.884 11.364,10.457c9.78,4.651 8.333,23 -4.186,24.717c-12.096,1.66 -12.719,-8.793 -18.073,-11.228c3.73,-2.484 1.438,-3.479 -1.745,-6.66Z" style="fill:#010101;"/><path d="M154.131,203.486c-1.004,6.157 -2.837,5.734 -2.982,11.991c-0.449,19.394 -36.655,14.182 -23.793,-9.059c0.296,-0.534 -0.303,-16.163 13.143,-16.934c12.659,-0.726 13.529,12.441 13.632,14.001Z"/><path d="M285.352,123.695c0.685,0.668 5.309,5.177 5.119,10.804c-0.14,4.151 -2.539,8.008 -4.391,9.55c-8.688,7.235 -13.646,0.311 -21.561,0.125c-10.328,-0.242 -16.005,-13.278 -9.61,-21.356c7.88,-9.953 19.854,-1.802 20.621,-1.765c5.256,0.255 5.345,0.014 9.822,2.641Z" style="fill:#010101;"/><path d="M252.186,341.485c2.391,-15.474 13.635,-11.3 17.145,-13.287c20.973,-11.872 31.33,22.77 7.161,23.802c-4.337,0.185 -9.842,6.65 -18.649,1.004c-4.486,-2.875 -5.519,-10.502 -5.657,-11.519Z"/><path d="M209.493,121.061c7.153,-0.598 9.341,-5.187 16.066,-2.718c1.205,0.442 10.008,3.675 9.167,13.166c-1.268,14.311 -15.298,12.264 -17.067,13.271c-21.056,11.98 -30.917,-21.847 -8.165,-23.72Z"/><path d="M387.624,376.736c-1.01,0.635 -1.891,-0.14 -5.068,5.803c-6.876,-5.537 -5.653,3.886 -8.056,3.215c-1.266,-0.353 -0.705,-1.228 -1.987,-1.385c-0.39,-0.048 -1.646,0.711 -1.811,1.131c-0.202,0.516 0.425,0.45 0.141,1c-0.517,1.001 -0.938,0.541 -1.414,1.462c-1.277,-0.325 -11.531,-2.933 -10.742,-12.482c0.957,-11.575 7.601,-12.371 9.496,-13.459c0.836,-0.48 2.417,-5.256 4.715,-7.096c13.033,-10.441 34.087,8.22 14.725,21.811Z" style="fill:#010101;"/><path d="M358.931,270.507c-0.132,1.494 -1.191,13.502 -13.434,13.076c-5.724,-0.199 -18.404,-6.936 -10.304,-21.256c0.437,-0.773 -0.348,-16.464 13.294,-17.101c4.381,-0.205 20.032,4.909 11.081,21.315c-0.724,1.326 -0.436,1.368 -0.637,3.966Z"/><path d="M281.612,407.82c5.128,-1.19 5.67,0.866 10.104,-2.005c13.459,-8.714 29.063,10.386 15.591,21.445c-6.263,5.141 -8.365,0.191 -14.718,4.374c-5.156,3.395 -10.138,1.812 -10.984,1.543c-7.753,-2.464 -8.905,-8.966 -9.178,-9.661c4.13,-0.242 6.205,-0.092 5.631,-4.948c1.177,-3.684 -0.548,-3.478 -1.602,-7.11c0.326,-0.348 0.653,-0.697 0.979,-1.045c2.662,2.665 3.16,4.509 5.808,1.781c1.205,-1.241 -1.22,-3.772 -1.632,-4.374Z"/><path d="M357.487,181.516c-1.768,-1.95 -1.853,-1.781 -2.66,-3.212c-1.115,-1.976 -1.668,-4.611 -2.518,-5.643c-13.084,-15.88 4.941,-24.467 10.204,-23.232c11.761,2.76 10.388,9.47 12.31,11.831c12.968,15.928 -4.095,29.841 -17.336,20.255Z" style="fill:#010101;"/><path d="M171.445,132.045c-18.513,-0.083 -20.336,-20.656 -5.099,-26.014c0.322,-0.113 12.662,-11.208 21.877,-1.281c5.632,6.068 4.995,17.533 -5.756,21.653c-5.84,2.238 -4.891,4.108 -11.022,5.642Z"/><path d="M120.496,184.911c-13.005,-1.31 -15.611,-13.737 -10.599,-21.124c4.915,-7.242 4.265,-7.602 4.692,-8.228c10.651,-15.602 32.649,1.409 21.45,15.567c-5.221,6.601 -4.42,12.973 -15.543,13.784Z"/><path d="M129.378,323.035c-14.667,2.696 -13.726,-7.152 -18.64,-12.742c-12.551,-14.276 11.948,-31.779 21.346,-15.541c2.055,3.55 1.328,3.871 3.925,7.144c3.75,4.727 6.242,16.555 -6.632,21.138Z"/><path d="M295.084,113.494c1.269,-12.751 13.579,-15.556 21.089,-10.535c7.304,4.882 7.587,4.285 8.214,4.71c15.55,10.558 -1.26,32.696 -15.56,21.429c-8.11,-6.39 -12.474,-3.75 -13.744,-15.604Z"/><path d="M295.088,359.508c1.414,-13.005 9.02,-11.433 12.272,-14.165c15.023,-12.619 24.428,4.101 23.14,10.157c-2.5,11.75 -9.446,10.461 -11.746,12.342c-14.924,12.202 -22.999,-1.338 -23.665,-8.333Z"/><path d="M347.96,312.438c0.053,-1.411 -0.753,-4.173 1.764,-8.812c1.735,-3.198 2.543,-2.66 3.838,-6.104c4.025,-10.707 15.54,-11.453 21.691,-5.749c9.862,9.145 -1.267,21.72 -1.319,21.868c-4.527,12.971 -21.075,14.72 -25.974,-1.204Z"/><path d="M127.338,266.598c-9.981,-19.533 10.596,-21.429 11.18,-21.368c14.355,1.501 12.214,15.365 13.219,17.14c8.822,15.577 -8.596,28.869 -21.13,16.05c1.896,-3.465 2.429,-3.36 2.013,-4.945c-0.37,-1.409 0.125,-1.278 0.669,-2.106c1.097,-1.668 -0.126,-1.559 -1.407,-3.017c-3.165,-3.604 4.045,-0.156 4.352,-0.32c3.375,-1.795 2.036,-2.993 -0.741,-5.526c-1.966,-1.793 -1.707,0.716 -4.154,1.731c-1.487,0.617 -0.941,2.278 -2.84,2.364c-0.387,0.017 -0.775,-0.021 -1.162,-0.004Z" style="fill:#020202;"/><path d="M187.916,350.136c-0.69,0.901 -2.371,0.384 -1.331,3.364c1.57,4.498 -3.435,1.059 -4.664,2.401c-1.626,1.776 5.003,7.411 5.696,7.204c0.314,-0.094 1.252,-0.584 -1.699,-3.728c-2.463,-2.624 3.218,-0.092 3.582,-0.22c0.21,-0.074 0.164,-0.126 2.213,-1.696c0.061,0.906 0.444,6.568 -3.471,10.806c-9.272,10.036 -21.665,-1.213 -21.891,-1.291c-22.303,-7.659 -2.957,-35.613 11.757,-22.996c4.476,3.838 5.523,2.175 9.807,6.156Z"/><path d="M248.493,362.1c-3.369,3.382 -5.866,3.083 -3.734,7.31c3.578,2.98 3.395,3.134 3.714,3.378c4.153,3.189 -2.115,-4.595 0.006,-4.838c1.296,-0.148 3.689,4.644 5.037,-0.366c4.062,-1.56 4.056,-1.383 4.397,-1.533c7.949,8.835 3.673,24.677 -13.339,22.069c-0.484,-0.074 -16.499,3.761 -19.315,-10.583c-1.639,-8.35 6.307,-16.928 15.276,-15.224c3.985,0.757 3.964,0.398 7.958,-0.214Z" style="fill:#020202;"/><path d="M213.306,331.964c0.158,-0.542 0.9,-0.782 1.059,-1.324c0.064,-0.218 -0.399,-0.228 -0.558,-0.39c-1.365,-1.386 -1.533,-0.327 -3.35,0.165c-1.974,0.535 -1.725,-0.835 -2.001,-1.006c-0.209,-0.13 -1.166,-0.226 -0.507,3.03c0.726,3.588 -3.139,3.327 -5.496,6.022c-0.161,0.214 -1.349,1.795 -2.077,2.625c-1.017,0.828 -2.033,1.655 -3.05,2.483c-0.42,-1.577 -4.102,-15.412 10.221,-17.647c7.651,-1.194 7.134,2.757 14.932,2.92c15.889,0.332 17.027,28.088 -2.935,26.34c-3.666,-0.321 -5.458,-3.146 -9.037,-3.184c-3.701,-0.039 -3.656,-0.075 -7.054,-1.419c1.661,-2.3 2.242,-2.22 1.746,-5.049c0.903,-1.798 1.468,-2.149 -0.865,-4.98c0.227,-0.264 -0.026,-0.761 0.201,-1.025c1.635,-1.899 2.673,2.807 5.259,0.302c1.116,-1.082 1.084,-1.027 1.113,-1.111c0.152,-0.433 -0.18,-1.065 0.166,-1.368c0.639,-0.56 1.717,-0.36 2.394,-0.874c1.521,-1.156 -5.218,-4.66 -0.161,-4.511Z" style="fill:#010101;"/><path d="M320.475,295.421c15.587,-2.222 24.588,15.374 8.229,25.38c-0.581,0.355 -5.79,11.922 -17.256,8.881c-7.725,-2.048 -9.192,-9.998 -9.404,-11.145c0.658,-0.162 0.798,-1.255 1.456,-1.418c0.417,-0.103 0.582,0.712 1,0.813c0.929,0.224 -0.134,-1.967 1.996,-2.447c2.403,-0.541 2.257,-0.78 3.38,-2.522c1.882,-2.919 3.121,-0.234 5.49,-1.697c0.504,-0.311 1.447,-0.894 2.733,-6.88c0.076,-0.351 0.081,-0.376 -2.254,-3.887c0.346,-0.2 0.309,-0.806 0.655,-1.006c1.821,-1.053 2.21,4.236 5.244,1.249c2.376,-2.339 0.619,-2.661 -1.269,-5.322Z"/><path d="M247.501,84.509c17.32,0.574 14.233,16.023 13.337,18.134c-4.783,11.27 -16.632,7.443 -18.359,7.704c-16.258,2.466 -20.32,-10.465 -15.205,-19.999c1.722,3.686 2.312,3.638 1.778,4.975c-1.587,3.974 3.773,4.581 2.801,2.142c-0.328,-0.822 -0.591,-0.603 -0.944,-1.401c-1.536,-3.472 2.503,0.053 2.664,0.194c1.262,1.101 1.294,0.072 2.223,-1.333c4.761,-1.761 4.316,-3.191 4.994,-4.305c0.934,-1.535 6.405,3.228 6.711,-6.112Z" style="fill:#010101;"/><path d="M111.656,220.22c9.019,6.655 4.501,9.338 6.138,20.248c2.158,14.376 -23.088,22.544 -26.402,2.034c4.537,-2.201 5.487,-2.77 5.072,-4.999c-0.471,-2.523 1.523,-2.839 -0.211,-4.823c-2.044,-2.339 0.05,-2.995 1.177,-2.086c3.285,2.648 3.463,0.368 6.124,-2.845c0.73,-0.983 1.261,-1.061 0.472,-1.996c-0.17,-0.201 -2.861,-3.386 -0.526,-3.25c1.905,0.111 2.646,3.72 4.285,0.398c0.694,-1.407 2.226,-0.514 2.715,-0.956c0.513,-0.465 0.643,-1.26 1.156,-1.725Z"/><path d="M357.515,196.491c1.472,3.85 1.141,3.868 1.417,7.993c0.07,1.05 9.19,14.034 -3.599,21.723c-7.394,4.445 -19.273,-0.861 -19.533,-10.727c-0.165,-6.252 -2.056,-5.8 -3.046,-11.996c0.533,0.151 0.488,0.161 3.945,1.577c0.359,0.497 0.284,1.226 0.643,1.722c0.154,0.213 1.64,2.268 3.193,0.755c0.348,-0.339 -0.901,-5.341 1.773,-2.608c1.925,1.967 2.357,-0.689 3.243,-1.26c1.159,-0.747 1.786,-0.071 4.724,-4.345c4.175,0.574 4.308,0.174 7.24,-2.833Z" style="fill:#010101;"/><path d="M174.818,302.301c2.662,3.324 3.452,2.374 6.425,5.447c13.367,13.816 -11.188,32.926 -21.302,15.505c-2.384,-4.107 -3.542,-2.892 -6.876,-6.365c0.385,-0.667 1.461,-0.721 1.846,-1.388c0.802,-1.388 -0.353,-1.679 0.583,-3.004c1.109,-1.571 4.634,-2.131 4.664,-2.174c1.029,-1.492 -0.385,-2.492 4.147,-6.064c0.304,0.461 1.228,1.863 4.554,5.182c1.837,-4.138 -1.335,-3.896 -1.093,-5.968c0.201,-1.726 4.359,1.256 4.734,1.049c0.225,-0.124 0.172,-0.164 2.317,-2.22Z" style="fill:#030303;"/><path d="M124.895,135.503c-5.046,27.29 -36.979,6.699 -23.226,-8.853c3.68,-4.161 20.697,-10.626 23.226,8.853Z" style="fill:#020202;"/><path d="M124.873,337.493c-2.127,23.413 -32.704,12.459 -25.417,-5.013c3.821,-9.162 22.396,-14.168 25.417,5.013Z"/><path d="M344.497,117.92c-17.735,-1.876 -15.485,-21.244 -4.998,-25.422c17.822,-7.101 27.889,23.557 4.998,25.422Z"/><path d="M142.508,355.105c27.137,5.036 6.64,36.851 -8.887,23.259c-5.612,-4.913 -8.777,-21.75 8.887,-23.259Z" style="fill:#010101;"/><path d="M344.495,355.104c19.339,2.579 13.097,19.474 8.841,23.21c-15.657,13.742 -36.126,-18.329 -8.841,-23.21Z" style="fill:#010101;"/><path d="M222.554,388.105c26.478,4.466 4.857,41.088 -11.761,20.271c-3.743,-4.689 -4.694,-19.615 11.761,-20.271Z" style="fill:#020202;"/><path d="M142.498,117.925c-18.048,-1.454 -14.689,-19.58 -7.771,-24.1c17.845,-11.66 32.135,21.279 7.771,24.1Z" style="fill:#020202;"/><path d="M362.064,135.506c1.301,-17.536 19.404,-14.923 24.068,-7.751c11.747,18.062 -21.537,32.075 -24.068,7.751Z"/><path d="M408.514,245.047c23.273,2.356 10.884,35.699 -7.831,24.181c-7.156,-4.404 -10.464,-22.403 7.831,-24.181Z"/><path d="M234.922,71.489c-0.014,0.085 0.372,7.79 -6.576,11.743c-14.552,8.278 -28.869,-12.886 -12.635,-23.258c3.2,-2.044 17.691,-3.649 19.211,11.516Z"/><path d="M252.054,400.471c3.628,-18.823 21.866,-13.435 25.548,-4.014c6.713,17.178 -24.407,28.025 -25.548,4.014Z"/><path d="M362.065,337.493c1.858,-17.139 20.231,-15.487 25.019,-5.768c8.774,17.814 -23.325,29.415 -25.019,5.768Z"/><path d="M78.494,227.93c-16.018,-1.873 -14.523,-16.593 -9.808,-21.305c19.001,-18.989 35.953,19.048 9.808,21.305Z"/><path d="M408.51,227.932c-23.282,-1.873 -12.995,-31.915 4.079,-25.688c10.041,3.661 14.626,23.368 -4.079,25.688Z" style="fill:#020202;"/><path d="M252.083,72.528c0.645,-18.903 21.588,-16.223 25.66,-5.114c5.827,15.898 -21.717,27.938 -25.66,5.114Z" style="fill:#010101;"/><path d="M102.951,299.488c-0.828,23.531 -34.583,14.081 -24.082,-6.672c3.748,-7.408 22.388,-10.449 24.082,6.672Z"/><path d="M193.058,81.546c-0.048,25.093 -35.628,14.141 -24.234,-5.839c3.609,-6.328 20.463,-11.1 24.234,5.839Z"/><path d="M180.488,376.97c21.483,2.6 12.531,30.036 -4.078,25.881c-11.395,-2.85 -16.158,-24.212 4.078,-25.881Z"/><path d="M307.49,376.968c22.223,2.631 12.767,34.101 -7.682,24.158c-6.515,-3.167 -12.132,-22.481 7.682,-24.158Z"/><path d="M293.896,81.546c3.167,-16.075 19.878,-12.957 24.207,-5.794c11.314,18.717 -23.581,31.978 -24.207,5.794Z"/><path d="M383.923,300.493c1.062,-18.872 20.886,-14.705 24.143,-7.607c9.762,21.269 -21.944,29.338 -24.143,7.607Z"/><path d="M102.952,173.51c-2.17,22.719 -33.93,11.339 -24.548,-7.064c4.099,-8.041 23.153,-12.14 24.548,7.064Z"/><path d="M398.453,186.07c-25.688,0.01 -13.286,-35.789 5.797,-24.182c7.072,4.301 10.294,20.947 -5.797,24.182Z"/><path d="M76.385,181.484c-2.161,0.94 -2.196,0.866 -2.334,1.016c-3.706,4.036 -2.646,-0.804 -2.524,-0.983c0.655,-0.966 1.144,-0.294 1.899,-1.247c1.326,-1.673 -5.58,-2.331 -4.329,3.124c0.839,3.661 -2.789,-2.569 -4.408,-1.573c-3.084,1.897 -2.108,5.19 -1.972,5.649c-0.215,0.355 -0.791,3.573 -3.276,3.853c-1.863,0.21 -1.309,0.999 -4.66,4.676c-3.917,2.422 -4.018,3.131 -2.479,7.501l-1.104,1.359c-11.473,-11.702 -0.745,-15.285 -1.285,-22.402c-1.169,-15.426 21.492,-23.144 26.177,-2.955c0.151,0.651 0.143,1.331 0.294,1.982Z" style="fill:#010101;"/><path d="M79.474,244.992c27.088,6.387 4.88,40.374 -11.726,20.386c-0.466,-0.561 -2.784,-3.351 -2.122,-8.861c0.733,-6.098 5.19,-8.822 5.737,-9.249c5.978,6.613 6.434,6.528 7.044,6.099c1.363,-0.96 -3.409,-4.881 0.097,-3.893c3.47,0.978 1.862,-1.468 0.97,-4.482Z" style="fill:#010101;"/><path d="M327.002,149.779c2.427,4.099 12.612,7.479 9.579,18.743c-1.78,6.61 -9.167,10.172 -14.043,9.496c-8.385,-1.163 -8.612,-6.296 -12.87,-9.793c4.212,-4.607 4.193,-4.711 5.87,-4.862c3.844,0.02 4.911,-0.977 4.6,-4.782c1.3,-5.056 -1.205,-4.709 -1.055,-6.186c0.188,-1.85 3.824,1.217 4.426,1.129c0.893,-0.131 0.716,-0.361 3.493,-3.745Z" style="fill:#010101;"/><path d="M175.531,143.389c0.928,0.426 7.168,3.288 8.925,9.125c3.144,10.449 -6.488,13.561 -10.422,19.667c-2.876,4.464 -13.403,10.485 -21.659,0.418c0.395,-0.733 1.277,-0.33 1.132,-2.099c-0.024,-0.294 0.122,-0.582 0.123,-0.877c0.002,-0.645 -2.359,-4.006 0.96,-3.494c0.269,0.041 1.718,1.364 1.859,1.493c2.131,0.914 3.771,2.592 4.049,2.876c4.222,-1.769 3.574,-2.496 4.346,-3.68c0.962,-1.473 9.047,1.486 6.669,-6.32c1.233,-2.075 0.893,-2.268 -0.547,-4.204c-2.539,-3.414 4.122,0.063 4.395,-0.068c4.014,-1.925 1.377,-3.101 -1.134,-6.786c0.038,-0.614 0.694,-0.609 -0.213,-2.915c-0.102,-0.259 -0.231,-0.587 1.516,-3.136Z" style="fill:#040404;"/><path d="M391.784,222.24c5.636,6.323 2.635,7.409 3.675,18.263c1.554,16.211 -26.524,22.504 -26.215,-1.036c3.408,1.826 3.361,2.71 5.136,1.918c0.444,-0.198 -2.627,-8.396 2.448,-4.169c-0.505,1.605 -0.491,1.554 -0.335,3.283l1.039,-0.266c2.422,2.354 2.836,1.974 3.207,1.473c2.328,-3.151 3.354,-2.096 5.589,-5.382c3.549,-0.815 4.439,0.355 6.042,-2.955c0.144,-3.675 -0.883,-3.294 -3.821,-6.271c0.101,-0.321 0.702,-0.29 0.803,-0.611c0.112,-0.357 -0.278,-0.716 -0.268,-1.091c0.038,-1.372 0.523,-1.118 2.699,-3.157Z" style="fill:#030303;"/><path d="M251.764,226.145c15.06,13.915 -7.11,34.154 -19.54,17.517c3.431,-1.8 3.607,-1.543 5.897,-4.597c0.349,-2.232 0.189,-2.347 0.375,-2.403c0.316,-0.095 0.651,0.302 0.967,0.207c0.491,0.493 0.413,1.389 0.904,1.882c1.497,1.501 3.579,-1.244 3.775,-1.503c1.232,-1.624 0.667,-1.737 0.175,-3.721c1.14,-2.184 1.062,-2.368 -0.405,-4.23c-0.133,-0.169 -0.947,-3.426 2.579,-0.781c2.119,1.589 1.91,-0.479 5.274,-2.371Z"/><path d="M175.531,143.389c-1.747,2.549 -1.618,2.877 -1.516,3.136c0.907,2.306 0.251,2.302 0.213,2.915c-3.157,3.693 -4.089,2.705 -6.984,6.681c-0.599,0.439 -1.199,0.879 -1.798,1.318c-0.244,0.174 -2.171,1.546 -2.327,2.94c-0.128,1.144 1.124,3.685 -0.618,2.297c-1.317,-1.049 -4.486,1.154 -4.883,2.881c-0.291,1.268 -0.322,1.185 -1.168,2.065c-0.141,-0.129 -1.59,-1.451 -1.859,-1.493c-3.319,-0.512 -0.958,2.849 -0.96,3.494c-0.001,0.295 -0.147,0.583 -0.123,0.877c0.145,1.769 -0.737,1.366 -1.132,2.099c-4.197,-8.178 -4.561,-14.024 5.923,-20.391c4.304,-2.614 1.111,-10.531 17.233,-8.819Z" style="fill:#010101;"/><path d="M391.784,222.24c-2.176,2.039 -2.66,1.786 -2.699,3.157c-0.01,0.374 0.38,0.734 0.268,1.091c-0.101,0.321 -0.702,0.29 -0.803,0.611c-0.588,0.136 -0.378,-0.571 -0.97,-0.434c-0.169,0.039 -0.31,0.072 -1.868,1.09c-2.925,1.912 0.466,7.025 -2.213,4.771c-1.155,-0.972 -4.539,1.031 -4.935,3.003c-0.236,1.176 -0.242,1.152 -1.098,2.036l-0.638,-0.348c-5.076,-4.227 -2.005,3.971 -2.448,4.169c-1.776,0.792 -1.729,-0.092 -5.136,-1.918c1.034,-6.669 -2.411,-13.302 5.34,-18.849c8.751,-6.261 16.19,0.678 17.2,1.621Z"/><path d="M315.475,153.462c-4.677,2.954 -3.91,3.595 -4.203,4.989c-0.918,0.535 -0.699,0.846 -1.777,1.035c-0.175,0.031 -0.392,0.068 -1.939,1.089c-0.972,1.143 -0.993,1.045 -3.254,3.068c-8.946,-16.12 11.218,-29.599 22.699,-13.864c-2.777,3.384 -2.6,3.614 -3.493,3.745c-0.602,0.088 -4.239,-2.979 -4.426,-1.129c-0.15,1.477 2.355,1.13 1.055,6.186c-3.084,-2.863 -4.345,-4.665 -4.663,-5.119Z" style="fill:#040404;"/><path d="M171.689,298.285c-4.646,2.689 -6.897,5.39 -7.384,5.973c-4.532,3.572 -3.118,4.572 -4.147,6.064c-0.029,0.043 -3.555,0.603 -4.664,2.174c-0.936,1.325 0.219,1.616 -0.583,3.004c-0.385,0.667 -1.461,0.721 -1.846,1.388c-9.358,-11.954 3.396,-28.974 18.623,-18.603Z" style="fill:#010101;"/><path d="M74.993,186.722c-3.076,4.658 -1.776,5.057 -2.151,8.814c-0.705,7.075 -10.73,17.69 -21.644,9.324l1.104,-1.359c2.973,-0.038 2.987,-0.171 3.208,-0.041c0.41,0.242 0.534,0.833 0.947,1.07c3.967,2.273 3.61,-3.518 3.583,-3.943c0.085,-0.378 -0.46,-0.723 -0.374,-1.102c0.095,-0.42 0.648,-0.595 0.843,-0.979c0.709,-1.402 -1.98,-3.35 -1.761,-4.027c0.679,-2.102 3.675,0.981 3.756,1.005c0.495,0.146 1.131,0.334 4.919,-4.173c0.027,-0.249 0.505,-0.281 0.532,-0.53c0.327,-2.984 -4.498,-4.036 -1.47,-4.296c2.421,-0.207 3.586,2.372 3.793,2.35c2.089,-0.225 -0.802,-2.761 1.233,-3.183c1.004,-0.208 1.837,0.048 1.989,0.095c0.866,0.266 0.55,0.686 1.493,0.976Z" style="fill:#020202;"/><path d="M111.656,220.22c-0.513,0.465 -0.643,1.26 -1.156,1.725c-0.489,0.443 -2.021,-0.451 -2.715,0.956c-1.639,3.323 -2.38,-0.287 -4.285,-0.398c-2.334,-0.136 0.356,3.049 0.526,3.25c0.789,0.934 0.258,1.013 -0.472,1.996c-2.661,3.213 -2.839,5.494 -6.124,2.845c-1.127,-0.909 -3.221,-0.253 -1.177,2.086c1.734,1.984 -0.259,2.3 0.211,4.823c0.416,2.229 -0.535,2.797 -5.072,4.999c0.872,-8.561 -2.421,-18.791 7.981,-23.293c5.846,-2.53 11.419,0.536 12.282,1.011Z" style="fill:#0e0e0e;"/><path d="M288.716,250.434c3.382,15.302 -11.235,18.587 -11.402,18.653c-2.287,0.899 -0.574,2.869 -4.42,7.732c-1.493,-2.834 -1.896,-2.783 -2.175,-2.749c-2.525,0.314 -2.569,2.4 1.174,3.838c-2.099,1.946 -2.155,1.784 -4.586,3.207c-1.666,-1.937 -1.472,-1.998 -1.861,-4.518c0.179,-0.283 0.815,0.131 0.994,-0.152c0.879,-1.389 0.005,-1.67 0.909,-3.085c1.893,-2.964 5.04,-0.405 4.933,-3.909c-0.057,-1.861 3.187,-2.696 4.837,-5.112c3.797,-5.559 6.421,-4.459 6.67,-6.888c0.127,-1.24 -1.884,-1.604 0.484,-4.337c0.153,-0.177 1.589,-1.834 2.228,-1.888c0.434,-0.037 0.566,0.81 1,0.841c0.916,0.065 1.383,-0.563 1.46,-0.666c0.343,-0.46 -0.63,-0.449 -0.244,-0.968Z" style="fill:#101010;"/><path d="M314.207,299.226l1.638,1.274c2.335,3.511 2.329,3.535 2.254,3.887c-1.287,5.986 -2.23,6.569 -2.733,6.88c-2.368,1.463 -3.607,-1.222 -5.49,1.697c-1.123,1.741 -0.977,1.98 -3.38,2.522c-2.13,0.48 -1.066,2.671 -1.996,2.447c-0.418,-0.101 -0.583,-0.915 -1,-0.813c-0.658,0.162 -0.798,1.255 -1.456,1.418c-0.126,-5.085 -0.211,-5.292 3.171,-10.274c3.284,-3.356 4.554,-1.965 6.869,-5.975c0.951,-1.646 0.876,-1.59 2.123,-3.062Z" style="fill:#0f0f0f;"/><path d="M350.545,190.401c-1.699,1.927 -1.632,1.856 -2.93,4.124c-0.907,1.179 -0.872,1.164 -2.276,1.647c-3.223,1.111 -1.884,2.8 -4.919,4.449c-6.027,-2.856 -1.505,3.628 -2.596,4.263c-0.328,0.191 -0.797,-0.015 -1.126,0.176c-3.458,-1.416 -3.413,-1.427 -3.945,-1.577c0.862,-16.786 14.544,-13.929 17.791,-13.082Z" style="fill:#010101;"/><path d="M245.513,223.416c-3.359,2.689 -2.761,3.199 -6.057,6l-1.92,1.134c-1.484,1.958 -1.533,1.914 -1.603,2.114c-0.252,0.726 0.82,4.589 0.821,4.59c0.43,0.283 0.6,0.14 1.365,1.811c-2.29,3.053 -2.466,2.797 -5.897,4.597c-2.175,-3.501 -6.311,-20.323 13.29,-20.246Z" style="fill:#070707;"/><path d="M247.501,84.509c-0.306,9.339 -5.778,4.577 -6.711,6.112c-0.677,1.113 -0.232,2.544 -4.994,4.305c-1.013,-0.648 -7.033,-5.247 -7.64,-5.711c6.754,-6.892 8.191,-3.58 19.345,-4.706Z" style="fill:#0d0d0d;"/><path d="M167.244,156.121c1.877,2.735 1.951,2.595 4.269,4.377c2.378,7.805 -5.706,4.847 -6.669,6.32c-0.773,1.183 -0.124,1.911 -4.346,3.68c-0.278,-0.284 -1.918,-1.962 -4.049,-2.876c0.846,-0.88 0.877,-0.797 1.168,-2.065c0.397,-1.727 3.566,-3.93 4.883,-2.881c1.742,1.388 0.489,-1.153 0.618,-2.297c0.157,-1.394 2.083,-2.766 2.327,-2.94c0.599,-0.439 1.199,-0.879 1.798,-1.318Z" style="fill:#111;"/><path d="M276.321,125.591l0.859,0.777c-1.489,4.607 -2.627,3.6 -4.599,4.518c-0.888,0.413 -0.56,3.68 -3.288,0.953c-2.845,-2.844 -1.311,1.521 -1.255,1.679c0.664,1.889 -0.568,1.497 -2.542,0.994c-3.244,-0.827 0.498,2.799 0.573,2.995c1.503,3.937 -6.617,-2.584 -6.112,-4.84c0.317,-1.415 0.855,-0.709 4.49,-0.506c1.489,0.083 -1.424,-8.877 4.002,-3.571c2.572,-2.871 1.993,-7.746 6.869,-3.795c0.522,0.423 0.482,0.383 1.002,0.796Z" style="fill:#141414;"/><path d="M388.55,227.098c2.938,2.978 3.966,2.596 3.821,6.271c-0.439,-0.361 -0.721,0.077 -1.558,-1.279c-0.915,-1.482 -0.62,0.911 -2.285,1.446c-2.45,0.787 -2.136,2.557 -2.2,2.788c-2.235,3.286 -3.261,2.231 -5.589,5.382c-0.371,0.502 -0.785,0.882 -3.207,-1.473c0.026,-0.212 -0.172,-0.147 -0.066,-2.67c0.856,-0.883 0.862,-0.859 1.098,-2.036c0.396,-1.972 3.779,-3.975 4.935,-3.003c2.679,2.253 -0.712,-2.859 2.213,-4.771c1.558,-1.019 1.7,-1.051 1.868,-1.09c0.592,-0.137 0.382,0.57 0.97,0.434Z" style="fill:#131313;"/><path d="M347.615,194.526c1.567,2.472 3.015,1.919 2.66,4.799c-2.938,4.274 -3.565,3.597 -4.724,4.345c-0.886,0.571 -1.318,3.227 -3.243,1.26c-2.674,-2.733 -1.425,2.269 -1.773,2.608c-1.553,1.513 -3.039,-0.542 -3.193,-0.755c-0.359,-0.497 -0.284,-1.226 -0.643,-1.722c0.328,-0.191 0.797,0.015 1.126,-0.176c1.09,-0.635 -3.431,-7.118 2.596,-4.263c3.035,-1.649 1.696,-3.337 4.919,-4.449c1.403,-0.484 1.368,-0.468 2.276,-1.647Z" style="fill:#121212;"/><path d="M195.436,55.599c4.665,-6.545 5.859,-4.992 6.234,-4.505c0.352,0.458 0.927,0.975 1.013,1.054c1.093,0.985 0.848,1.113 1.768,2.318c-1.848,2.581 -1.627,2.833 -2.814,3.304c-3.723,1.476 -2.848,2.595 -3.176,2.607c-1.341,0.048 -4.315,-4.423 -3.248,0.164c0.616,2.649 -0.972,1.785 -3.594,1.217l0.404,-1.65c0.729,-2.219 -0.661,-2.271 -0.052,-4.533c0.643,-2.386 1.657,-1.715 3.466,0.024Z" style="fill:#131313;"/><path d="M127.338,266.598c0.387,-0.017 0.775,0.021 1.162,0.004c1.899,-0.085 1.352,-1.747 2.84,-2.364c2.447,-1.015 2.188,-3.524 4.154,-1.731c2.777,2.532 4.116,3.731 0.741,5.526c-0.307,0.163 -7.517,-3.285 -4.352,0.32c1.281,1.458 2.504,1.349 1.407,3.017c-0.545,0.828 -1.039,0.696 -0.669,2.106c0.416,1.585 -0.117,1.48 -2.013,4.945c-3.394,-5.255 -1.484,-5.859 -3.269,-11.822Z" style="fill:#131313;"/><path d="M248.493,362.1c5.086,0.435 6.305,1.13 9.419,3.952c-0.341,0.15 -0.335,-0.027 -4.397,1.533c-1.348,5.01 -3.741,0.217 -5.037,0.366c-2.12,0.242 4.148,8.027 -0.006,4.838c-0.319,-0.245 -0.135,-0.398 -3.714,-3.378c-2.132,-4.226 0.365,-3.928 3.734,-7.31Z" style="fill:#0e0e0e;"/><path d="M76.385,181.484c-0.333,1.993 0.122,2.12 -1.391,5.237c-0.943,-0.29 -0.627,-0.71 -1.493,-0.976c-0.152,-0.047 -0.985,-0.303 -1.989,-0.095c-2.034,0.422 0.857,2.959 -1.233,3.183c-0.208,0.022 -1.373,-2.557 -3.793,-2.35c-3.028,0.259 1.798,1.312 1.47,4.296c-0.027,0.249 -0.505,0.281 -0.532,0.53c-2.534,-1.699 -2.271,-1.889 -4.706,-3.84c-0.136,-0.459 -1.112,-3.752 1.972,-5.649c1.619,-0.996 5.247,5.234 4.408,1.573c-1.25,-5.455 5.655,-4.797 4.329,-3.124c-0.755,0.953 -1.244,0.281 -1.899,1.247c-0.122,0.179 -1.182,5.019 2.524,0.983c0.138,-0.15 0.173,-0.075 2.334,-1.016Z" style="fill:#111;"/><path d="M213.306,331.964c-5.056,-0.149 1.683,3.356 0.161,4.511c-0.676,0.514 -1.755,0.314 -2.394,0.874c-0.345,0.303 -0.014,0.934 -0.166,1.368c-0.03,0.084 0.003,0.029 -1.113,1.111c-2.586,2.506 -3.624,-2.2 -5.259,-0.302c-0.227,0.264 0.026,0.761 -0.201,1.025c-0.627,-0.696 -1.255,-1.393 -1.882,-2.089c2.357,-2.694 6.222,-2.434 5.496,-6.022c-0.659,-3.256 0.298,-3.16 0.507,-3.03c0.276,0.171 0.027,1.541 2.001,1.006c1.817,-0.492 1.985,-1.551 3.35,-0.165c0.159,0.162 0.622,0.172 0.558,0.39c-0.158,0.542 -0.9,0.782 -1.059,1.324Z" style="fill:#0f0f0f;"/><path d="M142.697,113.35l-1.255,1.22c-1.193,-1.049 -4.125,-2.833 -3.843,-5.035c0.169,-1.316 0.725,-0.738 1.901,-0.039c1.018,0.605 2.875,-1.305 2.992,-1.33c1.28,-0.276 1.729,0.032 1.95,-1.683c0.169,-1.314 1.367,-2.436 1.432,-2.485c0.145,-0.11 7.194,-2.916 1.669,1.554c-1.024,0.828 -0.249,3.881 2.109,1.062c2.358,-2.819 2.608,2.913 -1.194,3.746c-2.415,0.529 -1.902,3.444 -3.778,1.875c-0.14,-0.117 -6.077,-4.478 -1.984,1.114Z" style="fill:#141414;"/><path d="M350.545,190.401c3.959,2.101 4.347,2.08 6.97,6.09c-2.932,3.007 -3.065,3.407 -7.24,2.833c0.355,-2.88 -1.094,-2.327 -2.66,-4.799c1.299,-2.268 1.231,-2.197 2.93,-4.124Z" style="fill:#0e0e0e;"/><path d="M187.916,350.136c3.137,3.558 2.541,3.85 3.798,7.324c-2.049,1.57 -2.003,1.622 -2.213,1.696c-0.364,0.128 -6.045,-2.404 -3.582,0.22c2.951,3.144 2.013,3.634 1.699,3.728c-0.693,0.207 -7.322,-5.427 -5.696,-7.204c1.229,-1.343 6.234,2.097 4.664,-2.401c-1.04,-2.98 0.641,-2.463 1.331,-3.364Z" style="fill:#131313;"/><path d="M315.475,153.462c0.318,0.454 1.579,2.257 4.663,5.119c0.31,3.805 -0.756,4.802 -4.6,4.782c-1.476,-2.968 -2.16,-2.331 -4.265,-4.913c0.293,-1.394 -0.474,-2.035 4.203,-4.989Z" style="fill:#121212;"/><path d="M54.781,195.999c1.25,0.503 3.566,0.41 3.761,1.419c0.084,0.434 -0.689,0.827 -0.5,1.227c0.397,0.839 1.601,1.101 1.998,1.94c0.026,0.425 0.384,6.216 -3.583,3.943c-0.413,-0.237 -0.537,-0.828 -0.947,-1.07c-0.221,-0.13 -0.235,0.003 -3.208,0.041c-1.539,-4.369 -1.438,-5.079 2.479,-7.501Z" style="fill:#121212;"/><path d="M62.717,187.47c2.436,1.951 2.172,2.14 4.706,3.84c-3.788,4.507 -4.425,4.319 -4.919,4.173c-0.081,-0.024 -3.077,-3.107 -3.756,-1.005c-0.219,0.677 2.471,2.625 1.761,4.027c-0.194,0.384 -0.748,0.559 -0.843,0.979c-0.085,0.378 0.46,0.723 0.374,1.102c-0.397,-0.839 -1.601,-1.101 -1.998,-1.94c-0.189,-0.399 0.584,-0.793 0.5,-1.227c-0.195,-1.009 -2.511,-0.916 -3.761,-1.419c3.351,-3.677 2.797,-4.465 4.66,-4.676c2.485,-0.281 3.061,-3.499 3.276,-3.853Z" style="fill:#0e0e0e;"/><path d="M245.513,223.416c3.357,0.901 3.296,0.952 6.25,2.729c-3.364,1.892 -3.155,3.961 -5.274,2.371c-3.526,-2.644 -2.713,0.612 -2.579,0.781c1.468,1.862 1.546,2.046 0.405,4.23c-2.462,-2.128 -2.38,-2.068 -4.859,-4.111c3.296,-2.801 2.698,-3.311 6.057,-6Z" style="fill:#111;"/><path d="M174.227,149.44c2.511,3.685 5.148,4.861 1.134,6.786c-0.273,0.131 -6.935,-3.347 -4.395,0.068c1.44,1.936 1.78,2.129 0.547,4.204c-2.318,-1.782 -2.392,-1.642 -4.269,-4.377c2.895,-3.976 3.826,-2.988 6.984,-6.681Z" style="fill:#111;"/><path d="M171.689,298.285c1.875,1.831 1.74,1.839 3.129,4.017c-2.146,2.055 -2.093,2.096 -2.317,2.22c-0.375,0.207 -4.533,-2.775 -4.734,-1.049c-0.242,2.071 2.93,1.83 1.093,5.968c-3.326,-3.319 -4.25,-4.721 -4.554,-5.182c0.486,-0.584 2.737,-3.285 7.384,-5.973Z" style="fill:#121212;"/><path d="M236.548,377.577c0.473,0.407 0.528,0.207 0.996,0.61c0.306,0.264 0.281,0.248 3.788,3.341c0.044,0.158 0.553,1.977 0.553,1.977c-0.114,4.547 -2.239,1.759 -2.581,1.724c0.025,-0.155 0.317,-1.94 0.317,-1.94c-0.103,-0.071 -0.099,0.06 -1.335,0.812c-0.36,0.159 -3.059,1.35 -4.873,-0.628c-1.928,-2.102 2.707,-5.576 3.135,-5.896Z" style="fill:#141414;"/><path d="M382.556,382.539c-3.691,4.545 -6.994,6.049 -13.126,5.423c0.476,-0.921 0.897,-0.461 1.414,-1.462c0.284,-0.55 -0.343,-0.484 -0.141,-1c0.165,-0.42 1.421,-1.179 1.811,-1.131c1.282,0.157 0.721,1.032 1.987,1.385c2.403,0.671 1.18,-8.753 8.056,-3.215Z" style="fill:#121212;"/><path d="M79.474,244.992c0.892,3.014 2.5,5.46 -0.97,4.482c-3.506,-0.988 1.265,2.932 -0.097,3.893c-0.609,0.429 -1.066,0.514 -7.044,-6.099c2.955,-1.675 3.238,-2.053 8.111,-2.276Z" style="fill:#131313;"/><path d="M210.917,51.654c-2.265,-0.189 -2.273,-0.638 -4.318,0.208c-2.521,1.043 -6.02,-2.709 -3.206,-5.477c1.967,-1.935 2.571,-2.767 4.187,-0.571c2.056,2.793 3.06,2.299 3.336,5.84Z" style="fill:#131313;"/><path d="M200.376,341.087c2.81,2.649 2.71,2.652 4.824,4.444c0.496,2.829 -0.085,2.749 -1.746,5.049c-3.699,-2.399 -4.299,-3.043 -6.127,-7.01c1.017,-0.828 2.033,-1.655 3.05,-2.483Z" style="fill:#0f0f0f;"/><path d="M274.466,413.48c1.231,2.991 1.241,2.97 3.593,5.087c0.574,4.856 -1.502,4.706 -5.631,4.948c-0.894,-6.175 0.206,-7.343 2.039,-10.035Z" style="fill:#101010;"/><path d="M256.512,68.502c1.088,-8.624 9.47,-1.882 5.731,1.73c-1.707,1.649 -3.841,0.788 -4.681,0.527c-0.35,-0.752 -0.7,-1.505 -1.05,-2.257Z" style="fill:#0d0d0d;"/><path d="M311.273,158.451c2.105,2.582 2.79,1.944 4.265,4.913c-1.677,0.151 -1.658,0.255 -5.87,4.862c-0.781,-0.496 -1.563,-0.993 -2.344,-1.489c0.889,-0.606 0.273,-1.076 1.175,-1.691c0.49,-0.334 0.406,0.439 1,0.21c0.389,-0.15 0.553,-0.627 0.847,-0.923c2.167,-2.178 -0.276,-2.002 -2.79,-3.757c1.547,-1.021 1.763,-1.059 1.939,-1.089c1.079,-0.188 0.859,-0.5 1.777,-1.035Z" style="fill:#111;"/><path d="M228.156,89.215c0.606,0.463 6.627,5.062 7.64,5.711c-0.929,1.405 -0.961,2.434 -2.223,1.333c-0.161,-0.141 -4.2,-3.666 -2.664,-0.194c0.353,0.798 0.617,0.579 0.944,1.401c0.972,2.438 -4.388,1.832 -2.801,-2.142c0.534,-1.336 -0.056,-1.288 -1.778,-4.975c0.294,-0.378 0.588,-0.756 0.882,-1.134Z" style="fill:#131313;"/><path d="M376.897,91.465c4.752,2.003 3.11,4.799 1.578,4.318c-4.812,-1.51 -0.506,2.268 -0.36,2.701c1.24,3.675 -7.045,-2.714 -6.089,-5.215c1.094,-2.862 4.797,1.46 4.872,-1.804Z" style="fill:#141414;"/><path d="M117.04,133.662c0.316,0.236 1.155,-0.476 1.873,1.394c0.768,2.001 1.637,3.433 -0.414,2.82c-0.162,-0.048 -4.414,-1.319 -1.582,1.407c2.344,2.256 -0.45,2.444 -1.1,1.84c-0.414,-0.385 -7.912,-7.341 -2.314,-6.677c2.269,0.269 3.319,1.557 3.537,-0.785Z" style="fill:#151515;"/><path d="M320.475,295.421c1.888,2.661 3.645,2.984 1.269,5.322c-3.034,2.986 -3.423,-2.302 -5.244,-1.249c-0.346,0.2 -0.309,0.806 -0.655,1.006l-1.638,-1.274c2.961,-2.736 3.068,-2.468 6.268,-3.805Z" style="fill:#131313;"/><path d="M101.503,368.461c1.264,-1.312 0.77,-3.522 3.072,-4.798c0.153,-0.085 4.891,-1.365 1.018,1.938c-0.863,0.736 -1.166,0.694 -0.846,1.791c0.642,2.203 3.737,-1.284 3.786,-1.289c2.61,-0.24 -0.609,6.402 -4.064,3.872c-0.856,-0.627 -0.896,-0.318 -2.006,-0.396c-0,0 -0.882,-1.03 -0.959,-1.119Z" style="fill:#131313;"/><path d="M237.537,230.55c6.092,4.502 5.332,5.407 4.894,5.83c-0.113,0.11 -2.73,0.457 -2.969,0.489c-0.316,0.095 -0.651,-0.302 -0.967,-0.207c-0.186,0.056 -0.027,0.171 -0.375,2.403c-0.765,-1.672 -0.935,-1.528 -1.365,-1.811c-0,-0 -1.073,-3.863 -0.821,-4.59c0.07,-0.201 0.119,-0.157 1.603,-2.114Z" style="fill:#0d0d0d;"/><path d="M184.482,290.532c-0.133,0.099 -1.666,1.234 -1.666,1.234c-0.217,0.412 0.18,1.048 -1.316,1.2c-1.214,0.124 -1.061,0.424 -2.2,0.879c-1.536,-1.05 -1.559,-0.922 -2.939,-2.204c3.211,-3.174 3.042,-3.345 4.227,-3.788c2.215,-0.829 1.885,0.473 3.894,2.678Z" style="fill:#0d0d0d;"/><path d="M239.457,229.417c2.479,2.043 2.397,1.983 4.859,4.111c0.492,1.984 1.058,2.097 -0.175,3.721c-0.196,0.259 -2.279,3.004 -3.775,1.503c-0.491,-0.493 -0.413,-1.389 -0.904,-1.882c0.239,-0.032 2.856,-0.379 2.969,-0.489c0.438,-0.424 1.198,-1.328 -4.894,-5.83l1.92,-1.134Z" style="fill:#141414;"/><path d="M242.403,375.689c-1.605,0.116 -2.551,0.268 -1.552,1.597c1.449,1.929 1.62,2.093 0.482,4.242c-3.508,-3.094 -3.482,-3.078 -3.788,-3.341c-0.468,-0.403 -0.523,-0.203 -0.996,-0.61c0.198,-0.212 3.743,-5.668 5.913,-4.403c1.172,0.683 1.163,1.081 1.159,1.215c-0.024,1.057 -1.195,0.318 -1.217,1.299Z" style="fill:#111;"/><path d="M406.304,210.524c-2.351,1.945 -2.374,2.431 -2.388,2.72c-0.151,3.209 1.473,-0.182 4.625,-0.783c-0.014,0.563 -0.154,6.238 -6.427,2.88c-1.02,-4.843 2.04,-7.546 4.19,-4.817Z" style="fill:#151515;"/><path d="M370.01,173.754l-0.74,1.284c-1.383,1.286 -2.062,1.134 -1.496,2.264c1.12,2.237 5.475,-3.886 4.551,0.181c-1.063,4.68 -5.374,1.883 -5.777,1.622c-2.583,-3.901 -0.224,-6.87 3.462,-5.351Z" style="fill:#151515;"/><path d="M97.6,370.139c3.183,3.181 5.475,4.176 1.745,6.66c-2.197,-1.385 -2.214,-1.27 -4.073,-3.082c0.182,-0.46 0.668,-0.757 0.85,-1.218c0.164,-0.416 -1.764,-7.262 1.478,-2.361Z" style="fill:#111;"/><path d="M281.612,407.82c0.412,0.602 2.837,3.133 1.632,4.374c-2.649,2.727 -3.146,0.883 -5.808,-1.781c1.999,-2.031 2.21,-1.616 4.176,-2.592Z" style="fill:#121212;"/><path d="M307.557,160.575c2.514,1.755 4.957,1.579 2.79,3.757c-0.294,0.296 -0.458,0.772 -0.847,0.923c-0.594,0.229 -0.51,-0.544 -1,-0.21c-0.903,0.615 -0.286,1.085 -1.175,1.691c-1.674,-1.412 -1.612,-1.34 -3.021,-3.093c2.26,-2.023 2.282,-1.925 3.254,-3.068Z" style="fill:#0c0c0c;"/><path d="M202.453,338.461c0.627,0.696 1.255,1.393 1.882,2.089c2.333,2.831 1.768,3.182 0.865,4.98c-2.114,-1.792 -2.014,-1.795 -4.824,-4.444c0.728,-0.83 1.916,-2.411 2.077,-2.625Z" style="fill:#0e0e0e;"/><path d="M392.372,233.37c-1.603,3.31 -2.494,2.14 -6.042,2.955c0.064,-0.231 -0.25,-2.002 2.2,-2.788c1.664,-0.534 1.37,-2.927 2.285,-1.446c0.837,1.356 1.119,0.918 1.558,1.279Z" style="fill:#0b0b0b;"/><path d="M276.456,411.457c1.055,3.631 2.78,3.426 1.602,7.11c-2.352,-2.117 -2.361,-2.096 -3.593,-5.087c0.309,-0.343 0.275,-0.296 1.99,-2.023Z" style="fill:#101010;"/><path d="M192.022,60.109l-0.404,1.65c-1.444,0.431 -1.34,0.543 -2.175,1.801c-6.171,-7.388 2.264,-3.593 2.578,-3.451Z" style="fill:#141414;"/><path d="M184.482,290.532c0.033,0.161 0.417,2.011 0.417,2.011c-0.109,0.266 -0.172,0.203 -2.317,2.74c-1.094,-0.479 -2.188,-0.958 -3.282,-1.438c1.139,-0.455 0.986,-0.756 2.2,-0.879c1.496,-0.152 1.099,-0.788 1.316,-1.2c0,0 1.533,-1.135 1.666,-1.234Z" style="fill:#1f1f1f;"/><path d="M272.894,276.819c-0.334,0.363 -0.667,0.726 -1.001,1.089c-3.742,-1.438 -3.698,-3.524 -1.174,-3.838c0.278,-0.035 0.682,-0.085 2.175,2.749Z" style="fill:#0d0d0d;"/><path d="M191.618,61.759c0.117,0.501 -0.418,0.729 1.376,2.555c11.068,11.271 -3.347,-0.548 -3.551,-0.754c0.835,-1.258 0.731,-1.37 2.175,-1.801Z" style="fill:#111;"/><path d="M406.304,210.524c0.746,0.646 1.491,1.292 2.237,1.937c-3.152,0.601 -4.776,3.992 -4.625,0.783c0.014,-0.289 0.037,-0.775 2.388,-2.72Z" style="fill:#020202;"/><path d="M264.824,276.197c-1.203,1.86 -0.684,3.157 -2.59,2.413c-0.039,-0.015 -1.767,-5.725 2.59,-2.413Z" style="fill:#171717;"/><path d="M234.486,240.326c-1.472,0.169 -2.01,0.672 -2.3,-0.826c-0.304,-1.571 4.115,-3.009 2.3,0.826Z" style="fill:#010101;"/><path d="M157.729,316.082c-0.14,-0.389 -0.768,-0.455 -0.909,-0.843c-0.828,-2.291 4.357,-2.317 2.492,0.14c-0.084,0.11 -0.117,0.052 -1.584,0.704Z"/><path d="M382.72,235.016c2.341,4.368 -1.946,2.174 -1.963,1.442c-0.033,-1.456 0.53,-1.121 1.963,-1.442Z"/><path d="M344.838,201.076c-0.754,-3.719 2.836,-1.797 2.191,-0.571c-0.617,1.172 -0.899,0.6 -2.191,0.571Z"/><path d="M274.344,126.565c-1.817,3.716 -2.706,1.123 -2.712,0.895c-0.094,-3.259 2.538,-1.042 2.712,-0.895Z"/><path d="M99.474,225.43c0.977,1.895 1.071,1.863 1.056,2.047c-0.186,2.286 -4.626,-0.92 -2.149,-2.174c0.327,-0.166 0.766,0.293 1.094,0.128Z" style="fill:#141414;"/><path d="M223.457,394.615c1.002,-1.761 0.621,-3.514 2.097,-2.119c0.173,0.164 3.274,4.197 -2.097,2.119Z" style="fill:#171717;"/><path d="M218.189,177.174c1.117,-0.882 1.093,-0.906 1.206,-0.953c3.078,-1.269 1.785,2.727 0.104,2.076c-0.536,-0.208 -0.774,-0.915 -1.311,-1.123Z" style="fill:#111;"/><path d="M161.664,165.128c1.161,1.858 0.915,2.954 -1.233,2.475c-0.216,-0.048 -2.692,-1.268 1.233,-2.475Z"/><path d="M237.973,90.337c-1.258,1.639 -1.941,3.229 -2.521,1.196c-0.619,-2.168 0.616,-2.43 2.521,-1.196Z"/><path d="M201.413,53.57c-0.046,0.575 -0.091,1.15 -0.137,1.725c-1.233,0.181 -1.186,0.259 -2.354,-0.179c0.592,-1.6 0.762,-1.594 2.491,-1.545Z"/><path d="M56.051,200.505c-1.406,1.12 -2.055,0.642 -2.201,0.535c-0.355,-0.261 0.419,-5.347 2.201,-0.535Z"/><path d="M316.23,157.568c-2.262,4.197 -2.634,0.148 -2.548,-0.037c0.758,-1.634 1.373,-1.336 2.548,0.037Z"/><path d="M165.11,308.585c-2.23,3.972 -2.566,0.133 -2.477,-0.044c0.73,-1.455 1.138,-0.755 2.477,0.044Z"/><path d="M167.417,159.606c0.007,0.324 0.512,0.497 0.52,0.821c0.051,2.29 -4.786,0.928 -2.19,-0.6c0.738,-0.434 0.739,-0.098 1.671,-0.22Z"/><path d="M207.044,49.445c-1.779,-0.029 -2.77,0.727 -2.455,-0.936c0.039,-0.207 1.22,-2.999 2.455,0.936Z"/><path d="M388.427,229.602c0.003,0.32 0.552,0.464 0.555,0.785c0.019,2.105 -3.993,1.201 -2.235,-0.595c0.095,-0.097 0.124,-0.014 1.68,-0.19Z"/><path d="M237.825,381.465c-2.545,2.739 -2.581,0.216 -2.557,0.013c0.222,-1.882 1.121,-1.317 2.557,-0.013Z"/><path d="M390.383,368.526c-1.338,-0.958 -2.319,-1.044 -1.137,-2.239c2.086,-2.108 1.179,2.043 1.137,2.239Z" style="fill:#0d0d0d;"/><path d="M399.639,219.405c2.671,2.67 0.052,2.563 -0.139,2.5c-1.043,-0.342 -1.007,-0.997 -1,-1.117c0.056,-1.016 1.085,-0.423 1.139,-1.383Z" style="fill:#121212;"/><path d="M373.939,245.296c1.121,1.14 1.155,1.105 1.211,1.231c0.689,1.554 -2.389,1.356 -2.218,-0.028c0.064,-0.519 0.943,-0.684 1.007,-1.204Z" style="fill:#121212;"/><path d="M376.829,237.216l0.638,0.348c-0.106,2.523 0.093,2.458 0.066,2.67l-1.039,0.266c-0.156,-1.729 -0.17,-1.678 0.335,-3.283Z" style="fill:#0f0f0f;"/><path d="M142.697,113.35c0.123,0.149 0.291,0.256 0.414,0.405c2.286,2.774 -0.456,2.078 -0.612,2.014c-0.493,-0.202 -0.564,-0.997 -1.058,-1.199l1.255,-1.22Z" style="fill:#121212;"/><path d="M256.512,68.502c0.35,0.752 0.7,1.505 1.05,2.257c-0.166,-0.099 -2.074,-1.237 -2.074,-1.237c0.005,-0.482 1.019,-0.538 1.024,-1.019Z" style="fill:#080808;"/><path d="M238.287,384.101c1.236,-0.752 1.232,-0.884 1.335,-0.812c0,0 -0.292,1.785 -0.317,1.94l-1.018,-1.128Z" style="fill:#060606;"/><path d="M277.504,124.453c-0.108,0.638 -0.216,1.276 -0.323,1.914l-0.859,-0.777l1.183,-1.138Z" style="fill:#060606;"/></g></svg>