<?xml version="1.0" encoding="UTF-8" standalone="no"?><!DOCTYPE svg PUBLIC "-//W3C//DTD SVG 1.1//EN" "http://www.w3.org/Graphics/SVG/1.1/DTD/svg11.dtd"><svg width="100%" height="100%" viewBox="0 0 500 500" version="1.1" xmlns="http://www.w3.org/2000/svg" xmlns:xlink="http://www.w3.org/1999/xlink" xml:space="preserve" xmlns:serif="http://www.serif.com/" style="fill-rule:evenodd;clip-rule:evenodd;stroke-linejoin:round;stroke-miterlimit:2;"><g id="Colored-Logo" serif:id="Colored Logo"><path d="M293.291,189.2c2.632,2.227 3.569,3.014 4.646,4.236c2.991,3.395 31.791,36.082 37.584,42.267c5.881,0.417 5.99,0.493 8.128,0.54c7.517,0.164 7.292,1.554 16.007,10.424c6.169,6.279 24.029,24.759 26.114,26.916c1.283,1.435 3.412,3.427 4.407,4.52c6.792,7.456 25.77,25.625 25.925,27.592c0.103,1.312 -7.035,25.259 -19.898,45.967c-5.367,8.64 -9.434,13.901 -9.767,14.384c-4.694,6.813 -8.033,11.412 -13.298,17.849c-0.727,0.36 -8.532,8.585 -15.931,13.002c-74.061,60.802 -157.696,45.738 -202.712,21.142c-40.995,-22.468 -65.305,-52.744 -81.249,-87.417c-1.376,-2.993 -2.108,-5.804 -2.353,-5.555c-0.892,-2.259 -8.052,-20.379 -9.024,-28.996c-0.174,-1.546 11.364,-10.969 31.773,-29.898c11.547,-10.71 13.064,-1.578 17.601,-1.218c0.65,0.052 0.788,-0.064 17.571,-21.022c6.898,-8.615 10.221,-16.418 20.186,-8.942c2.004,1.503 2.373,0.275 10.116,-7.387c35.466,-35.093 35.235,-35.37 38.797,-37.833c7.987,-5.521 14.315,5.745 18.664,11.27c6.286,7.987 6.71,7.994 7.184,7.633c0.336,-0.256 3.104,-5.328 9.158,-4.428c4.711,0.7 5.978,6.181 7.901,3.654c6.53,-8.585 21.518,4.585 24.411,2.16c4.568,-3.829 17.666,-20.533 22.449,-21.423c2.854,-0.531 2.818,-0.121 5.611,0.563Z" style="fill:#efe3ca;stroke:#fff;stroke-width:0.63px;"/><path d="M232.891,59.886c0.636,-0.011 1.273,-0.018 1.909,-0.029c98.051,-1.738 169.213,65.687 186.875,148.487c9.293,43.567 -1.659,87.962 -3.529,87.796c-0.965,-0.086 -56.293,-57.762 -61.148,-62.823c-6.393,-6.664 -7.087,-5.871 -12.725,-6.299c-1.743,-0.132 -0.855,-0.964 -1.082,-2.729c-3.706,-28.714 -17.982,-50.74 -33.238,-64.747c-61.379,-56.353 -163.043,-22.972 -175.041,64.779c-0.196,1.432 -0.538,1.322 -23.334,30.348c-2.077,2.645 -2.679,1.176 -5.551,-0.603c-7.594,-4.705 -10.622,0.036 -20.854,9.333c-24.258,22.04 -25.686,24.523 -26.208,21.835c-23.62,-121.511 64.747,-220.648 173.927,-225.347Z" style="fill:#61d0ff;stroke:#fff;stroke-width:0.63px;"/><path d="M203.151,197.778c6.392,7.447 18.81,24.92 20.202,24.673c1.017,-0.181 7.41,-10.386 8.823,-8.949c1.285,1.307 15.709,18.372 17.066,19.978c3.613,4.339 3.646,4.291 4.382,5.128c16.531,19.386 16.451,20.733 20.68,21.322c12.421,1.731 12.807,1.384 14.908,3.848c41.494,48.675 45.161,52.382 49.388,56.654c-0.228,0.269 -0.456,0.538 -0.685,0.807c-14.097,-10.254 -21.871,-14.026 -45.784,-35.448c-1.274,-1.089 -1.201,-1.069 -3.325,-3.058c-6.686,-6.339 -7.1,-8.078 -9.661,-6.152c-10.589,7.963 -10.885,9.354 -12.925,7.697c-6.626,-5.379 -30.062,-25.129 -32.667,-27.325c-1.074,-0.879 -3.498,-2.961 -3.801,-3.221c-3.735,-2.876 -19.529,0.04 -20.921,-2.585c-0.098,-0.185 -6.005,-13.241 -10.026,-22.663c-1.444,-3.384 -1.137,1.239 -1.691,7.348c-2.512,27.708 -3.971,58.462 -4.213,63.551c-0.387,-0.277 -0.774,-0.554 -1.161,-0.831c-0.046,-2.876 -0.114,-2.817 -0.157,-5.681c-1.099,-8.372 -3.692,-23.766 -19.236,-40.31c-2.152,-2.29 -2.638,-0.687 -4.72,2.278c-14.143,20.145 -11.567,32.836 -13.649,32.733c-0.526,-0.026 -4.933,-8.103 -5.526,-17.779c-0.04,-0.654 0.006,-1.311 -0.026,-1.966c-0.058,-1.177 -0.656,-1.378 -1.363,-0.445c-15.003,19.798 -16.272,36.174 -16.645,36.435c-1.332,0.932 -3.3,-6.313 -13.492,-10.733c-0.773,-0.335 -8.337,-3.616 -10.449,-1.212c-1.776,2.02 -11.943,13.59 -26.543,20.569c-2.273,1.086 -2.985,2.473 -4.023,0.174c-5.937,-13.146 -5.459,-13.609 -4.589,-14.45c4.298,-4.155 27.627,-25.22 30.041,-27.4c3.019,-2.726 10.765,8.062 13.48,4.602c7.285,-9.284 7.273,-9.228 22.301,-28.182c1.407,-1.774 3.381,-4.353 3.673,-4.734c2.051,-2.679 2.869,-0.653 9.445,4.073c1.548,1.113 2.928,-1.06 30.047,-27.747c1.306,-1.283 1.283,-1.241 2.544,-2.518c0.455,-0.4 0.91,-0.8 1.365,-1.201c2.582,-2.543 5.599,-5.566 6.084,-6.051c0.256,-0.255 3.206,-3.184 3.206,-3.184c2.295,-2.218 2.278,-2.166 4.51,-4.437c2.577,-2.52 1.821,-4.993 5.134,-3.608Z" style="fill:#3e1804;"/><path d="M236.077,140.629c0.846,-0.002 1.691,-0.023 2.537,-0.025c50.469,-0.13 82.755,36.516 90.536,70.852c1.572,6.937 1.567,7.151 1.044,7.44c-0.664,0.367 -1.195,-1.07 -5.119,-5.367c-1.146,-1.254 -4.449,-4.932 -4.835,-5.362c-9.114,-10.148 -24.3,-27.836 -26.406,-29.072c-8.132,-4.774 -12.449,4.056 -28.541,20.157c-3.287,3.289 -17.736,-10.329 -24.499,-2.274c-2.277,2.712 -2.616,0.031 -4.28,-1.275c-7.218,-5.664 -12.419,1.797 -13.185,1.764c-1.128,-0.049 -12.097,-13.218 -13.095,-14.415c-7.888,-9.469 -11.707,-5.355 -20.032,2.774c-2.875,2.807 -40.134,38.696 -40.622,39.228c-0.141,0.154 -2.477,2.704 -2.355,1.099c2.761,-36.378 25.748,-57.636 29.742,-61.33c26.818,-24.802 58.863,-24.177 59.111,-24.195Z" style="fill:#f45b26;stroke:#fff;stroke-width:0.63px;"/><path d="M287.22,199.491c2.166,-1.869 2.091,-2.002 2.337,-2.016c1.046,-0.061 23.001,25.648 39.886,44.373c3.187,3.968 3.869,2.888 5.945,2.97c9.599,0.03 10.021,-0.549 12.562,2.088c0.688,0.714 30.986,31.913 33.681,34.688c0.606,0.669 1.211,1.338 1.817,2.007c1.219,1.131 1.221,1.114 1.317,1.221c2.068,2.336 21.941,22.602 22.332,23.025c0.718,0.776 1.497,1.619 -4.416,12.494c-1.618,2.976 -2.497,0.249 -15.472,-11.064c-9.024,-7.868 -8.681,-8.199 -17.675,-16.13c-2.053,-1.81 -5.243,-0.96 -12.5,-1.535c-2.069,-0.164 -1.803,-0.862 -20.89,-20.631c-13.164,-13.634 -15.648,-17.399 -14.67,-13.989c5.949,20.744 6.994,23.615 7.727,25.626c0.839,2.306 -0.737,1.381 -0.793,1.274c-7.176,-13.639 -10.786,-20.717 -35.32,-56.166c-1.578,-2.28 -2.194,-0.905 -3.919,1.271c-9.47,11.95 -10.325,21.483 -12.056,19.367c-27.262,-33.305 -31.785,-35.598 -28.317,-34.742c0.099,0.025 16.917,7.77 18.408,6.744c1.904,-1.309 1.688,-1.553 20.017,-20.876Z" style="fill:#3e1804;"/><g transform="matrix(1.003264,0,0,1.003264,-1312.634671,3.934138)"><g transform="matrix(0.449641,-0.893209,0.893209,0.449641,598.194343,1301.834971)"><text x="1355.509px" y="165.495px" style="font-family:'RetroFloral', 'Retro Floral';font-size:47.761px;fill:#fff;">S</text></g><g transform="matrix(0.592247,-0.805757,0.805757,0.592247,445.935524,1159.447777)"><text x="1368.554px" y="139.12px" style="font-family:'RetroFloral', 'Retro Floral';font-size:47.761px;fill:#fff;">O</text></g><g transform="matrix(0.728126,-0.685444,0.685444,0.728126,306.550335,984.279904)"><text x="1394.048px" y="105.706px" style="font-family:'RetroFloral', 'Retro Floral';font-size:47.761px;fill:#fff;">N</text></g><g transform="matrix(0.819112,-0.573633,0.573633,0.819112,208.244123,828.340614)"><text x="1417.544px" y="83.977px" style="font-family:'RetroFloral', 'Retro Floral';font-size:47.761px;fill:#fff;">S</text></g><g transform="matrix(0.929354,-0.369189,0.369189,0.929354,80.283907,540.740472)"><text x="1453.075px" y="60.592px" style="font-family:'RetroFloral', 'Retro Floral';font-size:47.761px;fill:#fff;">O</text></g><g transform="matrix(0.97875,-0.205056,0.205056,0.97875,22.269704,306.960613)"><text x="1492.192px" y="46.031px" style="font-family:'RetroFloral', 'Retro Floral';font-size:47.761px;fill:#fff;">F</text></g><g transform="matrix(0.999938,0.011173,-0.011173,0.999938,0.530752,-17.116382)"><text x="1532.179px" y="38.944px" style="font-family:'RetroFloral', 'Retro Floral';font-size:47.761px;fill:#fff;">M</text></g><g transform="matrix(0.978831,0.20467,-0.20467,0.978831,41.361849,-320.632274)"><text x="1570.681px" y="39.635px" style="font-family:'RetroFloral', 'Retro Floral';font-size:47.761px;fill:#fff;">O</text></g><g transform="matrix(0.923256,0.384186,-0.384186,0.923256,142.529395,-615.477592)"><text x="1611.821px" y="49.016px" style="font-family:'RetroFloral', 'Retro Floral';font-size:47.761px;fill:#fff;">U</text></g><g transform="matrix(0.847401,0.530954,-0.530954,0.847401,284.078501,-863.129973)"><text x="1643.626px" y="62.646px" style="font-family:'RetroFloral', 'Retro Floral';font-size:47.761px;fill:#fff;">N</text></g><g transform="matrix(0.756341,0.654178,-0.654178,0.756341,460.249245,-1074.010054)"><text x="1671.88px" y="80.835px" style="font-family:'RetroFloral', 'Retro Floral';font-size:47.761px;fill:#fff;">T</text></g><g transform="matrix(0.666852,0.74519,-0.74519,0.666852,632.787138,-1226.835424)"><text x="1688.494px" y="94.296px" style="font-family:'RetroFloral', 'Retro Floral';font-size:47.761px;fill:#fff;">A</text></g><g transform="matrix(0.56513,0.825002,-0.825002,0.56513,849.129311,-1360.227643)"><text x="1714.824px" y="125.338px" style="font-family:'RetroFloral', 'Retro Floral';font-size:47.761px;fill:#fff;">I</text></g><g transform="matrix(0.472438,0.881364,-0.881364,0.472438,1028.472741,-1446.476695)"><text x="1722.505px" y="135.864px" style="font-family:'RetroFloral', 'Retro Floral';font-size:47.761px;fill:#fff;">N</text></g></g><g transform="matrix(-1.003264,-0,0,-1.003264,1790.898397,501.439218)"><g transform="matrix(0.273253,-0.961942,0.961942,0.273253,782.411918,1439.444036)"><text x="1343.85px" y="201.911px" style="font-family:'RetroFloral', 'Retro Floral';font-size:47.761px;fill:#fff;">l</text></g><g transform="matrix(0.361051,-0.932546,0.932546,0.361051,698.253142,1373.337033)"><text x="1351.319px" y="177.118px" style="font-family:'RetroFloral', 'Retro Floral';font-size:47.761px;fill:#fff;">i</text></g><g transform="matrix(0.447612,-0.894228,0.894228,0.447612,601.100417,1303.552999)"><text x="1355.673px" y="165.233px" style="font-family:'RetroFloral', 'Retro Floral';font-size:47.761px;fill:#fff;">f</text></g><g transform="matrix(0.56235,-0.8269,0.8269,0.56235,482.758335,1192.930954)"><text x="1368.345px" y="140.402px" style="font-family:'RetroFloral', 'Retro Floral';font-size:47.761px;fill:#fff;">e</text></g><g transform="matrix(0.711586,-0.702599,0.702599,0.711586,325.460507,1009.195197)"><text x="1391.97px" y="108.174px" style="font-family:'RetroFloral', 'Retro Floral';font-size:47.761px;fill:#fff;">b</text></g><g transform="matrix(0.799733,-0.600356,0.600356,0.799733,230.184356,865.821617)"><text x="1412.863px" y="87.89px" style="font-family:'RetroFloral', 'Retro Floral';font-size:47.761px;fill:#fff;">e</text></g><g transform="matrix(0.884293,-0.466932,0.466932,0.884293,133.080712,678.526581)"><text x="1435.631px" y="70.741px" style="font-family:'RetroFloral', 'Retro Floral';font-size:47.761px;fill:#fff;">y</text></g><g transform="matrix(0.945492,-0.325645,0.325645,0.945492,61.290114,479.077546)"><text x="1461.717px" y="56.457px" style="font-family:'RetroFloral', 'Retro Floral';font-size:47.761px;fill:#fff;">o</text></g><g transform="matrix(0.989409,-0.145154,0.145154,0.989409,9.594008,218.451512)"><text x="1501.794px" y="43.48px" style="font-family:'RetroFloral', 'Retro Floral';font-size:47.761px;fill:#fff;">n</text></g><g transform="matrix(0.999809,0.01955,-0.01955,0.999809,1.05311,-30.008915)"><text x="1535.334px" y="38.857px" style="font-family:'RetroFloral', 'Retro Floral';font-size:47.761px;fill:#fff;">d</text></g><g transform="matrix(0.966202,0.257785,-0.257785,0.966202,64.184128,-406.60486)"><text x="1582.742px" y="41.474px" style="font-family:'RetroFloral', 'Retro Floral';font-size:47.761px;fill:#fff;">c</text></g><g transform="matrix(0.900963,0.433896,-0.433896,0.900963,182.634505,-697.499207)"><text x="1619.242px" y="51.325px" style="font-family:'RetroFloral', 'Retro Floral';font-size:47.761px;fill:#fff;">o</text></g><g transform="matrix(0.800183,0.599756,-0.599756,0.800183,373.264533,-979.807941)"><text x="1657.091px" y="70.277px" style="font-family:'RetroFloral', 'Retro Floral';font-size:47.761px;fill:#fff;">m</text></g><g transform="matrix(0.696255,0.717795,-0.717795,0.696255,579.300216,-1182.373234)"><text x="1686.711px" y="93.299px" style="font-family:'RetroFloral', 'Retro Floral';font-size:47.761px;fill:#fff;">f</text></g><g transform="matrix(0.572204,0.820111,-0.820111,0.572204,822.254116,-1350.869006)"><text x="1705.977px" y="112.721px" style="font-family:'RetroFloral', 'Retro Floral';font-size:47.761px;fill:#fff;">o</text></g><g transform="matrix(0.420643,0.907226,-0.907226,0.420643,1135.654912,-1483.356258)"><text x="1729.235px" y="147.494px" style="font-family:'RetroFloral', 'Retro Floral';font-size:47.761px;fill:#fff;">r</text></g><g transform="matrix(0.293973,0.955814,-0.955814,0.293973,1395.113664,-1541.746725)"><text x="1741.159px" y="173.473px" style="font-family:'RetroFloral', 'Retro Floral';font-size:47.761px;fill:#fff;">t</text></g></g></g></svg>