<?xml version="1.0" encoding="UTF-8" standalone="no"?><!DOCTYPE svg PUBLIC "-//W3C//DTD SVG 1.1//EN" "http://www.w3.org/Graphics/SVG/1.1/DTD/svg11.dtd"><svg width="100%" height="100%" viewBox="0 0 500 500" version="1.1" xmlns="http://www.w3.org/2000/svg" xmlns:xlink="http://www.w3.org/1999/xlink" xml:space="preserve" xmlns:serif="http://www.serif.com/" style="fill-rule:evenodd;clip-rule:evenodd;stroke-linejoin:round;stroke-miterlimit:2;"><g id="Colored-Logo--2" serif:id="Colored Logo -2"><path d="M293.082,189.2c2.632,2.227 3.569,3.014 4.646,4.236c2.991,3.395 31.791,36.082 37.584,42.267c5.881,0.417 5.99,0.493 8.128,0.54c7.517,0.164 7.292,1.554 16.007,10.424c6.169,6.279 24.029,24.759 26.114,26.916c1.283,1.435 3.412,3.427 4.407,4.52c6.792,7.456 25.77,25.625 25.925,27.592c0.103,1.312 -7.035,25.259 -19.898,45.967c-5.367,8.64 -9.434,13.901 -9.767,14.384c-4.694,6.813 -8.033,11.412 -13.298,17.849c-0.727,0.36 -8.532,8.585 -15.931,13.002c-74.061,60.802 -157.696,45.738 -202.712,21.142c-40.995,-22.468 -65.305,-52.744 -81.249,-87.417c-1.376,-2.993 -2.108,-5.804 -2.353,-5.555c-0.892,-2.259 -8.052,-20.379 -9.024,-28.996c-0.174,-1.546 11.364,-10.969 31.773,-29.898c11.547,-10.71 13.064,-1.578 17.601,-1.218c0.65,0.052 0.788,-0.064 17.571,-21.022c6.898,-8.615 10.221,-16.418 20.186,-8.942c2.004,1.503 2.373,0.275 10.116,-7.387c35.466,-35.093 35.235,-35.37 38.797,-37.833c7.987,-5.521 14.315,5.745 18.664,11.27c6.286,7.987 6.71,7.994 7.184,7.633c0.336,-0.256 3.104,-5.328 9.158,-4.428c4.711,0.7 5.978,6.181 7.901,3.654c6.53,-8.585 21.518,4.585 24.411,2.16c4.568,-3.829 17.666,-20.533 22.449,-21.423c2.854,-0.531 2.818,-0.121 5.611,0.563Z" style="fill:#efe3ca;fill-opacity:0;stroke:#fff;stroke-width:0.63px;"/><path d="M203.283,197.476c6.403,7.41 18.843,24.799 20.238,24.552c1.019,-0.18 7.423,-10.336 8.838,-8.905c1.287,1.301 15.737,18.283 17.096,19.88c3.62,4.318 3.652,4.27 4.39,5.103c16.56,19.292 16.48,20.631 20.716,21.218c12.443,1.722 12.829,1.377 14.934,3.829c41.567,48.437 45.24,52.126 49.475,56.378c-0.229,0.268 43.697,52.088 43.587,52.423c-5.102,15.394 -65.109,54.054 -85.29,59.221c-38.754,9.922 -71.829,17.892 -126.238,-5.127c-31.048,-13.135 -52.989,-30.484 -67.39,-47.487c-10.771,-12.717 -18.172,-23.617 -24.835,-35.907c-1.257,-2.319 -3.028,-6.077 -4.925,-10.338c-5.094,-11.447 -10.619,-27.003 -9.985,-27.612c4.306,-4.135 35.003,-32.425 37.421,-34.595c3.025,-2.713 10.784,8.023 13.504,4.579c7.298,-9.239 7.286,-9.183 22.34,-28.045c1.409,-1.766 3.387,-4.332 3.679,-4.711c2.055,-2.666 2.874,-0.649 9.462,4.053c1.551,1.107 2.934,-1.055 30.1,-27.612c1.308,-1.276 1.285,-1.235 2.549,-2.506c0.456,-0.398 0.912,-0.797 1.367,-1.195c2.587,-2.531 5.609,-5.538 6.094,-6.022c0.257,-0.253 3.212,-3.168 3.212,-3.168c2.299,-2.207 2.282,-2.155 4.518,-4.415c2.581,-2.508 1.825,-4.969 5.143,-3.591Z" style="fill:#fff;stroke:#000;stroke-opacity:0;stroke-width:1px;"/><path d="M288.482,201.145c2.17,-1.86 2.094,-1.992 2.341,-2.006c1.048,-0.061 23.042,25.522 39.956,44.156c3.192,3.949 3.876,2.874 5.956,2.956c9.615,0.029 10.039,-0.546 12.584,2.078c0.689,0.711 31.041,31.758 33.74,34.519c0.607,0.666 1.213,1.331 1.82,1.997c1.221,1.125 1.223,1.108 1.319,1.215c2.071,2.324 21.98,22.492 22.371,22.912c0.719,0.773 1.5,1.611 -4.423,12.433c-1.621,2.962 -2.501,0.248 -15.499,-11.01c-9.04,-7.83 -8.696,-8.159 -17.706,-16.051c-2.056,-1.801 -5.252,-0.955 -12.522,-1.527c-2.073,-0.163 -1.806,-0.858 -20.927,-20.531c-13.187,-13.568 -15.676,-17.315 -14.696,-13.921c5.96,20.643 7.007,23.5 7.74,25.501c0.841,2.294 -0.739,1.374 -0.795,1.268c-7.188,-13.573 -10.805,-20.616 -35.382,-55.892c-1.581,-2.269 -2.198,-0.901 -3.926,1.265c-9.486,11.891 -10.343,21.378 -12.077,19.273c-27.31,-33.143 -31.841,-35.424 -28.367,-34.572c0.1,0.024 16.946,7.732 18.441,6.712c1.908,-1.303 1.691,-1.545 20.053,-20.775Z" style="fill:#fff;"/><path d="M232.682,59.886c0.636,-0.011 1.273,-0.018 1.909,-0.029c98.051,-1.738 169.213,65.687 186.875,148.487c9.293,43.567 -1.659,87.962 -3.529,87.796c-0.965,-0.086 -56.293,-57.762 -61.148,-62.823c-6.393,-6.664 -7.087,-5.871 -12.725,-6.299c-1.743,-0.132 -0.855,-0.964 -1.082,-2.729c-3.706,-28.714 -17.982,-50.74 -33.238,-64.747c-61.379,-56.353 -163.043,-22.972 -175.041,64.779c-0.196,1.432 -0.538,1.322 -23.334,30.348c-2.077,2.645 -2.679,1.176 -5.551,-0.603c-7.594,-4.705 -10.622,0.036 -20.854,9.333c-24.258,22.04 -25.686,24.523 -26.208,21.835c-23.62,-121.511 64.747,-220.648 173.927,-225.347Z" style="fill:#61d0ff;fill-opacity:0;stroke:#fff;stroke-width:4.17px;"/><path d="M235.868,140.629c0.846,-0.002 1.691,-0.023 2.537,-0.025c50.469,-0.13 82.755,36.516 90.536,70.852c1.572,6.937 1.567,7.151 1.044,7.44c-0.664,0.367 -1.195,-1.07 -5.119,-5.367c-1.146,-1.254 -4.449,-4.932 -4.835,-5.362c-9.114,-10.148 -24.3,-27.836 -26.406,-29.072c-8.132,-4.774 -12.449,4.056 -28.541,20.157c-3.287,3.289 -17.736,-10.329 -24.499,-2.274c-2.277,2.712 -2.616,0.031 -4.28,-1.275c-7.218,-5.664 -12.419,1.797 -13.185,1.764c-1.128,-0.049 -12.097,-13.218 -13.095,-14.415c-7.888,-9.469 -11.707,-5.355 -20.032,2.774c-2.875,2.807 -40.134,38.696 -40.622,39.228c-0.141,0.154 -2.477,2.704 -2.355,1.099c2.761,-36.378 25.748,-57.636 29.742,-61.33c26.818,-24.802 58.863,-24.177 59.111,-24.195Z" style="fill:#fff;stroke:#fff;stroke-width:0.63px;"/><path d="M287.011,199.491c2.166,-1.869 2.091,-2.002 2.337,-2.016c1.046,-0.061 23.001,25.648 39.886,44.373c3.187,3.968 3.869,2.888 5.945,2.97c9.599,0.03 10.021,-0.549 12.562,2.088c0.688,0.714 30.986,31.913 33.681,34.688c0.606,0.669 1.211,1.338 1.817,2.007c1.219,1.131 1.221,1.114 1.317,1.221c2.068,2.336 21.941,22.602 22.332,23.025c0.718,0.776 1.497,1.619 -4.416,12.494c-1.618,2.976 -2.497,0.249 -15.472,-11.064c-9.024,-7.868 -8.681,-8.199 -17.675,-16.13c-2.053,-1.81 -5.243,-0.96 -12.5,-1.535c-2.069,-0.164 -1.803,-0.862 -20.89,-20.631c-13.164,-13.634 -15.648,-17.399 -14.67,-13.989c5.949,20.744 6.994,23.615 7.727,25.626c0.839,2.306 -0.737,1.381 -0.793,1.274c-7.176,-13.639 -10.786,-20.717 -35.32,-56.166c-1.578,-2.28 -2.194,-0.905 -3.919,1.271c-9.47,11.95 -10.325,21.483 -12.056,19.367c-27.262,-33.305 -31.785,-35.598 -28.317,-34.742c0.099,0.025 16.917,7.77 18.408,6.744c1.904,-1.309 1.688,-1.553 20.017,-20.876Z" style="fill:#fff;fill-opacity:0.02;"/><g transform="matrix(1.003264,0,0,1.003264,-1312.843816,3.934138)"><g transform="matrix(0.452005,-0.892016,0.892016,0.452005,595.761832,1299.741501)"><text x="1355.727px" y="164.986px" style="font-family:'RetroFloral', 'Retro Floral';font-size:47.761px;fill:#fff;">S</text></g><g transform="matrix(0.59405,-0.804428,0.804428,0.59405,444.076113,1157.412043)"><text x="1368.798px" y="138.717px" style="font-family:'RetroFloral', 'Retro Floral';font-size:47.761px;fill:#fff;">O</text></g><g transform="matrix(0.729656,-0.683815,0.683815,0.729656,304.911427,981.97183)"><text x="1394.366px" y="105.361px" style="font-family:'RetroFloral', 'Retro Floral';font-size:47.761px;fill:#fff;">N</text></g><g transform="matrix(0.820403,-0.571785,0.571785,0.820403,206.802931,825.770557)"><text x="1417.911px" y="83.684px" style="font-family:'RetroFloral', 'Retro Floral';font-size:47.761px;fill:#fff;">S</text></g><g transform="matrix(0.930207,-0.367037,0.367037,0.930207,79.284753,537.701951)"><text x="1453.502px" y="60.376px" style="font-family:'RetroFloral', 'Retro Floral';font-size:47.761px;fill:#fff;">O</text></g><g transform="matrix(0.979232,-0.202741,0.202741,0.979232,21.692538,303.577294)"><text x="1492.662px" y="45.903px" style="font-family:'RetroFloral', 'Retro Floral';font-size:47.761px;fill:#fff;">F</text></g><g transform="matrix(0.999908,0.013567,-0.013567,0.999908,0.668932,-20.78979)"><text x="1532.681px" y="38.91px" style="font-family:'RetroFloral', 'Retro Floral';font-size:47.761px;fill:#fff;">M</text></g><g transform="matrix(0.978345,0.206983,-0.206983,0.978345,42.239818,-324.345024)"><text x="1571.165px" y="39.692px" style="font-family:'RetroFloral', 'Retro Floral';font-size:47.761px;fill:#fff;">O</text></g><g transform="matrix(0.922366,0.386318,-0.386318,0.922366,144.161532,-619.0329)"><text x="1612.274px" y="49.167px" style="font-family:'RetroFloral', 'Retro Floral';font-size:47.761px;fill:#fff;">U</text></g><g transform="matrix(0.846196,0.532872,-0.532872,0.846196,286.360559,-866.394184)"><text x="1644.043px" y="62.868px" style="font-family:'RetroFloral', 'Retro Floral';font-size:47.761px;fill:#fff;">N</text></g><g transform="matrix(0.754875,0.655869,-0.655869,0.754875,463.114863,-1076.894196)"><text x="1672.253px" y="81.119px" style="font-family:'RetroFloral', 'Retro Floral';font-size:47.761px;fill:#fff;">T</text></g><g transform="matrix(0.665186,0.746678,-0.746678,0.665186,636.094743,-1229.33823)"><text x="1688.838px" y="94.617px" style="font-family:'RetroFloral', 'Retro Floral';font-size:47.761px;fill:#fff;">A</text></g><g transform="matrix(0.563277,0.826268,-0.826268,0.563277,852.900702,-1362.227207)"><text x="1715.099px" y="125.719px" style="font-family:'RetroFloral', 'Retro Floral';font-size:47.761px;fill:#fff;">I</text></g><g transform="matrix(0.470441,0.882431,-0.882431,0.470441,1032.54524,-1448.054758)"><text x="1722.757px" y="136.265px" style="font-family:'RetroFloral', 'Retro Floral';font-size:47.761px;fill:#fff;">N</text></g></g><g transform="matrix(-1.003264,-0,0,-1.003264,1790.689253,501.439218)"><g transform="matrix(0.273253,-0.961942,0.961942,0.273253,782.411918,1439.444036)"><text x="1343.85px" y="201.911px" style="font-family:'RetroFloral', 'Retro Floral';font-size:47.761px;fill:#fff;">l</text></g><g transform="matrix(0.361051,-0.932546,0.932546,0.361051,698.253142,1373.337033)"><text x="1351.319px" y="177.118px" style="font-family:'RetroFloral', 'Retro Floral';font-size:47.761px;fill:#fff;">i</text></g><g transform="matrix(0.447612,-0.894228,0.894228,0.447612,601.100417,1303.552999)"><text x="1355.673px" y="165.233px" style="font-family:'RetroFloral', 'Retro Floral';font-size:47.761px;fill:#fff;">f</text></g><g transform="matrix(0.56235,-0.8269,0.8269,0.56235,482.758335,1192.930954)"><text x="1368.345px" y="140.402px" style="font-family:'RetroFloral', 'Retro Floral';font-size:47.761px;fill:#fff;">e</text></g><g transform="matrix(0.711586,-0.702599,0.702599,0.711586,325.460507,1009.195197)"><text x="1391.97px" y="108.174px" style="font-family:'RetroFloral', 'Retro Floral';font-size:47.761px;fill:#fff;">b</text></g><g transform="matrix(0.799958,-0.600056,0.600056,0.799958,229.935298,865.404203)"><text x="1412.923px" y="87.839px" style="font-family:'RetroFloral', 'Retro Floral';font-size:47.761px;fill:#fff;">e</text></g><g transform="matrix(0.884293,-0.466932,0.466932,0.884293,133.080712,678.526581)"><text x="1435.631px" y="70.741px" style="font-family:'RetroFloral', 'Retro Floral';font-size:47.761px;fill:#fff;">y</text></g><g transform="matrix(0.945492,-0.325645,0.325645,0.945492,61.290114,479.077546)"><text x="1461.717px" y="56.457px" style="font-family:'RetroFloral', 'Retro Floral';font-size:47.761px;fill:#fff;">o</text></g><g transform="matrix(0.989409,-0.145154,0.145154,0.989409,9.594008,218.451512)"><text x="1501.794px" y="43.48px" style="font-family:'RetroFloral', 'Retro Floral';font-size:47.761px;fill:#fff;">n</text></g><g transform="matrix(0.999809,0.01955,-0.01955,0.999809,1.05311,-30.008915)"><text x="1535.334px" y="38.857px" style="font-family:'RetroFloral', 'Retro Floral';font-size:47.761px;fill:#fff;">d</text></g><g transform="matrix(0.966202,0.257785,-0.257785,0.966202,64.184128,-406.60486)"><text x="1582.742px" y="41.474px" style="font-family:'RetroFloral', 'Retro Floral';font-size:47.761px;fill:#fff;">c</text></g><g transform="matrix(0.900963,0.433896,-0.433896,0.900963,182.634505,-697.499207)"><text x="1619.242px" y="51.325px" style="font-family:'RetroFloral', 'Retro Floral';font-size:47.761px;fill:#fff;">o</text></g><g transform="matrix(0.800183,0.599756,-0.599756,0.800183,373.264533,-979.807941)"><text x="1657.091px" y="70.277px" style="font-family:'RetroFloral', 'Retro Floral';font-size:47.761px;fill:#fff;">m</text></g><g transform="matrix(0.696255,0.717795,-0.717795,0.696255,579.300216,-1182.373234)"><text x="1686.711px" y="93.299px" style="font-family:'RetroFloral', 'Retro Floral';font-size:47.761px;fill:#fff;">f</text></g><g transform="matrix(0.572204,0.820111,-0.820111,0.572204,822.254116,-1350.869006)"><text x="1705.977px" y="112.721px" style="font-family:'RetroFloral', 'Retro Floral';font-size:47.761px;fill:#fff;">o</text></g><g transform="matrix(0.420643,0.907226,-0.907226,0.420643,1135.654912,-1483.356258)"><text x="1729.235px" y="147.494px" style="font-family:'RetroFloral', 'Retro Floral';font-size:47.761px;fill:#fff;">r</text></g><g transform="matrix(0.293973,0.955814,-0.955814,0.293973,1395.113664,-1541.746725)"><text x="1741.159px" y="173.473px" style="font-family:'RetroFloral', 'Retro Floral';font-size:47.761px;fill:#fff;">t</text></g></g></g></svg>